<svg version="1.1" xmlns="http://www.w3.org/2000/svg" xmlns:xlink="http://www.w3.org/1999/xlink" x="0px" y="0px" width="970.082px" height="386.98px" viewBox="0 0 970.082 386.98" enable-background="new 0 0 970.082 386.98" xml:space="preserve">
<g id="Layer_2">
</g>
<g id="Layer_3">
	<path opacity="0.1" fill="#00A9A0" enable-background="new    " d="M42.432,333.401L42.432,333.401l-14.607,14.52   c-0.424,0.425-1.103,1.614-1.87,3.312c-0.084,0.171-0.254,0.511-0.424,0.937l-0.509,0.934c-4.924,10.104,6.538,6.371,10.444,2.377   l14.522-14.52L42.432,333.401z"/>
	<path opacity="0.1" fill="#00A9A0" enable-background="new    " d="M64.426,325.927L64.426,325.927c0-1.951-0.681-3.566-2.039-4.84   c-1.36-1.444-2.972-2.124-4.926-2.124h-0.085c-1.866,0-3.481,0.68-4.754,1.955l-2.888,2.887l-0.424-0.426   c-0.594-0.681-1.275-0.85-2.209-0.85c-0.849,0-1.527,0.254-2.124,0.85l-2.714,2.718c-0.597,0.595-0.851,1.274-0.851,2.124   c0,0.423,0,0.763,0.084,1.103l12.398,12.398v0.085c0.339,0.084,0.767,0.254,1.275,0.254c0.764,0,1.443-0.339,2.121-1.018   l2.718-2.635c0.594-0.594,0.849-1.355,0.849-2.207c0-0.851-0.255-1.613-0.849-2.207l-0.509-0.34l2.973-2.888   C63.829,329.494,64.508,327.797,64.426,325.927L64.426,325.927z"/>
	<path opacity="0.1" fill="#00A9A0" enable-background="new    " d="M32.24,369.237l-3.991-7.813l-4.075,7.813   c-0.764,2.714,1.87,4.838,4.075,4.838C30.458,374.075,33.176,371.951,32.24,369.237L32.24,369.237z"/>
	<path opacity="0.1" fill="#00A9A0" enable-background="new    " d="M54.743,135.117L54.743,135.117   c-0.082-2.123-0.764-9.766-2.715-14.18c-0.17-0.256-0.257-0.425-0.509-0.596c-0.852-0.68-3.312-2.292-6.542-2.292   c-3.142,0-5.605,1.612-6.453,2.292c-0.255,0.171-0.425,0.34-0.509,0.596c-1.955,4.499-2.633,12.058-2.718,14.18   c0,0.338,0.084,0.679,0.254,1.02l2.039,3.058l5.944-7.729l-2.293-3.143c-0.424-0.678-0.084-1.528,0.682-1.698   c1.442-0.426,2.97-2.292,2.97-2.292s1.615,1.866,3.142,2.292c0.763,0.169,1.105,1.104,0.593,1.698l-3.394,4.501   c-2.124,2.631-25.817,31.929-23.778,34.137l5.69,6.199c0.679,0.851,7.217-7.556,7.811-8.406l19.53-28.617   C54.661,135.796,54.743,135.456,54.743,135.117L54.743,135.117z"/>
	<path opacity="0.1" fill="#00A9A0" enable-background="new    " d="M52.11,142.929l-5.942,9.002l8.914,12.821   c0.597,0.852,5.435,5.604,6.202,4.839l5.602-6.282c0.513-0.595-3.057-6.115-3.566-6.708L52.11,142.929z"/>
	<path opacity="0.1" fill="#00A9A0" enable-background="new    " d="M726.822,57.406L726.822,57.406l13.926,17.915   c4.162-3.99,4.842-10.613,1.36-15.2C738.457,55.37,731.919,54.349,726.822,57.406L726.822,57.406z"/>
	<path opacity="0.1" fill="#00A9A0" enable-background="new    " d="M731.068,48.235L731.068,48.235l10.7,8.322   c1.951,1.356,4.33,1.954,6.623,1.614c2.38-0.258,4.499-1.532,5.944-3.398l0.509-0.679c1.697-2.375,2.209-5.437,1.273-8.238   c-0.595-1.697-1.611-3.226-3.144-4.244l-10.697-8.324L731.068,48.235z"/>
	<path opacity="0.1" fill="#00A9A0" enable-background="new    " d="M718.842,27.092L718.842,27.092l-0.512,0.592   c-1.781,2.382-2.206,5.523-1.272,8.325c0.51,1.697,1.614,3.144,3.059,4.242l9.85,7.392l11.123-15.031l-9.766-7.391   C727.416,22.335,721.727,23.102,718.842,27.092L718.842,27.092z"/>
	<path opacity="0.1" fill="#00A9A0" enable-background="new    " d="M704.574,61.315L704.574,61.315l20.803-8.748   c-2.799-5.185-8.998-7.476-14.349-5.266C705.508,49.595,702.875,55.621,704.574,61.315L704.574,61.315z"/>
	<path opacity="0.1" fill="#00A9A0" enable-background="new    " d="M738.712,76.852L738.712,76.852   c-5.011,3.142-11.634,2.12-15.201-2.631c-3.48-4.588-2.888-11.21,1.358-15.2L738.712,76.852z"/>
	<path opacity="0.1" fill="#00A9A0" enable-background="new    " d="M724.956,57.746l-0.682,0.678   c-2.889,2.719-4.159,6.541-3.82,10.193c-0.17,0.081-0.339,0.17-0.509,0.251c-5.437,2.212-11.636-0.17-14.438-5.263l20.892-8.745   c0.17,0.51,0.255,1.101,0.34,1.697c-0.085,0-0.17,0.082-0.34,0.17l-0.765,0.422L724.956,57.746z"/>
	<path opacity="0.1" fill="#00A9A0" enable-background="new    " d="M913.448,240.064L913.448,240.064l2.864-10.62h2.513   l4.963,18.515l1.815-6.918l1.261-0.977h4.747l2.864-10.62h2.517l2.865,10.62h8.246c0.559-1.815,0.904-3.773,0.904-5.802   c0-7.613-5.868-13.764-13.064-13.764c-3.771,0-7.265,1.748-9.643,4.405c-2.374-2.657-5.797-4.405-9.57-4.405   c-7.196,0-13.134,6.149-13.134,13.764c0,2.027,0.42,3.985,0.979,5.802H913.448z"/>
	<path opacity="0.1" fill="#00A9A0" enable-background="new    " d="M938.808,242.719h8.246   c-5.521,11.879-20.752,19.563-20.752,19.563s-15.16-7.684-20.682-19.563h8.804l1.257-0.979l1.89-6.916l4.962,18.518h2.514   l2.864-10.622h4.684l1.257-0.979l1.815-6.916l1.887,6.916L938.808,242.719z"/>
	<path opacity="0.1" fill="#00A9A0" enable-background="new    " d="M50.328,54.616c1.53,1.527,3.905,2.292,5.351,2.632   c2.036-4.246,3.736-9.426,3.651-13.757c0-1.527-0.17-2.802-0.424-3.906C55.764,50.285,44.383,48.757,50.328,54.616L50.328,54.616z"/>
	<path opacity="0.1" fill="#00A9A0" enable-background="new    " d="M57.803,36.867c-0.852-1.356-1.955-1.953-3.06-2.377   c-0.255-0.085-0.424-0.171-0.594-0.256c-0.424-0.255-0.679-2.207-0.17-5.178c0.254-1.361,1.19-2.889,1.19-2.974   c0.17-0.255,0.17-0.51,0-0.765c-0.087-0.255-0.339-0.424-0.597-0.511l-2.375-0.425c-0.427-0.169-0.852,0.171-1.021,0.596   c-0.509,2.377-2.378,7.559-3.057,8.321c-0.084,0.086-0.169,0.256-0.255,0.256c-0.254,0-0.763-0.51-0.763-1.188   c-0.085-1.189,0.425-5.436,0.594-7.644c0-0.255-0.085-0.425-0.255-0.595c-0.169-0.255-0.424-0.339-0.594-0.339h-2.039   c-0.509,0-0.849,0.339-0.849,0.849c0,0.085-0.509,4.757-0.848,6.879c-0.17,0.85-0.597,2.716-1.106,2.716   c-0.082,0-0.255,0-0.424-0.17c-1.018-0.424-1.782-3.905-2.036-5.178c-0.425-1.869-0.594-3.313-0.594-3.313   c0-0.254-0.17-0.509-0.342-0.679c-0.255-0.171-0.51-0.256-0.765-0.171l-2.463,0.68c-0.424,0.084-0.678,0.595-0.593,1.02   c0,0,0.763,1.868,1.103,3.905c0.257,1.189-0.251,2.463-1.272,3.143c-0.255,0.17-0.509,0.255-0.679,0.424   c-0.424,0.255-0.934,0.765-1.361,1.273C42.687,37.971,52.537,61.664,57.803,36.867L57.803,36.867z"/>
	<path opacity="0.1" fill="#00A9A0" enable-background="new    " d="M54.913,58.777c-1.528,2.887-3.224,5.096-4.415,6.199   c-1.272,1.103-2.718,1.697-4.33,1.697c-3.142,0-6.878-2.292-11.295-6.964c-4.161-4.33-5.436-9.34-5.775-12.737   c-0.424-3.991,0.258-7.812,1.7-9.936l0,0c0.085-0.085,0.254-0.255,0.424-0.425c15.201,3.651,11.38,12.738,17.833,19.191   C50.752,57.504,53.215,58.352,54.913,58.777L54.913,58.777z"/>
	<path opacity="0.1" fill="#00A9A0" enable-background="new    " d="M559.67,18.95c1.778,0,2.375,3.228,1.27,7.134   c-1.101,3.906-3.394,7.048-5.179,7.048c-1.784,0-2.375-3.142-1.274-7.048C555.504,22.177,557.885,18.95,559.67,18.95L559.67,18.95z   "/>
	<path opacity="0.1" fill="#00A9A0" enable-background="new    " d="M562.554,31.092c0-0.509-0.082-0.933-0.251-1.356   c-1.275,2.972-5.604,8.152-7.898,10.444c-1.784-1.272-4.248-1.019-5.692,0.595l-22.246,24.031   c-0.766,0.849-0.766,2.209,0.082,2.973l3.399,3.142c0.849,0.765,2.206,0.765,2.972-0.084l22.246-24.117   c1.363-1.357,1.533-3.481,0.597-5.009C558.733,38.737,562.472,34.406,562.554,31.092L562.554,31.092z"/>
	<path opacity="0.1" fill="#00A9A0" enable-background="new    " d="M627.348,336.545c-5.354,7.046-6.453,18.934-6.711,23.519   c-0.082,1.19,0.428,2.381,1.356,3.143c0.854,0.679,1.955,0.938,2.973,0.768l10.28-1.445c6.026-0.934,4.751-11.464,4.921-15.624   c1.02-1.02,2.212-2.549,3.908-4.161c1.785,1.782,3.225,3.313,4.33,4.416c0.17,4.074-1.188,14.437,4.758,15.369l10.273,1.445   c1.019,0.17,2.124-0.089,2.973-0.768c0.936-0.762,1.445-1.951,1.356-3.143c-0.168-4.585-1.274-16.473-6.623-23.519   c-12.06-15.883-13.158-3.568-12.819,8.487c-1.363-1.61-2.632-3.142-2.721-3.226l0.089-9H642.8l-0.17,9   c0.17-0.17-1.099,1.274-2.544,2.887C640.425,332.721,639.236,320.833,627.348,336.545L627.348,336.545z"/>
	<path opacity="0.1" fill="#00A9A0" enable-background="new    " d="M730.759,140.151h1.468c1.009,0,1.739,0.732,1.739,1.651   s-0.73,1.649-1.739,1.649H731.4C731.677,142.538,731.129,140.977,730.759,140.151L730.759,140.151z"/>
	<path opacity="0.15" fill="#67CDFD" enable-background="new    " d="M721.781,143.452l0.273-14.294   c0.549-0.183,2.107-0.644,4.397-0.735l3.299,11.456c0.642,1.371,1.099,3.113,0.824,3.479c0,0,0,0.094-0.092,0.094H721.781   L721.781,143.452z"/>
	<path opacity="0.1" fill="#00A9A0" enable-background="new    " d="M724.896,147.848c0,8.065-0.096,16.037-0.462,24.1   c-0.184,4.035,6.876,4.035,7.061,0c0.365-7.237,0.458-9.253,0.458-16.492c0.272,0,0.641,0,1.006,0   c0,7.239,0.092,9.255,0.366,16.492c0.183,4.035,7.239,4.035,7.056,0c-0.366-8.063-0.457-16.034-0.457-24.1l0,0v-15.394h0.915v13.84   v0.454c0,1.012,0.916,1.835,2.018,1.835c1.1,0,2.019-0.823,2.019-1.835v-13.012c-0.554-5.404-7.06-5.404-7.334-5.404h-10.264   l3.117,10.998h1.833c1.465,0,2.563,1.099,2.563,2.474c0,1.285-1.099,2.384-2.563,2.384h-7.33L724.896,147.848L724.896,147.848z"/>
	<path opacity="0.1" fill="#00A9A0" enable-background="new    " d="M732.41,115.502c3.48,0,6.231,2.566,6.231,5.774   c0,3.205-2.751,5.773-6.231,5.773c-3.392,0-6.232-2.568-6.232-5.773C726.178,118.068,729.02,115.502,732.41,115.502L732.41,115.502   z"/>
	<path opacity="0.1" fill="#00A9A0" enable-background="new    " d="M720.862,143.452h-0.276c-0.549,0-0.914-0.182-1.188-0.364   c-0.551-0.55-0.551-1.193-0.551-1.377l0,0v-8.795c0-0.094,0.273-2.021,2.292-3.302L720.862,143.452z"/>
	<path opacity="0.1" fill="#00A9A0" enable-background="new    " d="M170.996,250.69l-19.446-11.888l-0.339-0.256   c-4.245-8.661-15.031-15.115-23.185-16.813c-3.142-0.595-5.771-0.595-7.557,0.34c-1.527,0.765-2.632,2.122-2.46,4.416   c0.422,4.841,5.942,11.719,17.662,23.776c3.057,3.058,5.436,7.219,9.256,10.444c3.821,3.229,8.153,6.793,13.077,10.359   l-0.933,1.188c-4.927-3.65-9.256-7.049-13.077-10.443c-3.82-3.229-6.284-7.388-9.426-10.613   c-11.804-12.397-17.664-19.617-18.003-24.542c-0.169-3.058,1.103-4.926,3.396-6.03c2.04-0.848,4.924-0.848,8.324-0.254   c8.49,1.698,19.53,8.493,24.2,17.238l19.276,11.888L170.996,250.69z"/>
	<path opacity="0.1" fill="#00A9A0" enable-background="new    " d="M129.387,225.469c1.53,0.086,2.718,1.02,2.718,2.293   c-0.085,1.189-1.358,2.123-2.718,1.952c-1.531,0-2.803-0.848-2.633-2.123C126.754,226.404,128.026,225.469,129.387,225.469   L129.387,225.469z"/>
	<path opacity="0.1" fill="#00A9A0" enable-background="new    " d="M375.396,248.398c-3.061,2.207-6.033,3.649-9.004,4.414   c-3.055,0.766-6.027,0.766-8.917-0.255l-0.509-0.254l-4.16-4.075l-14.181,14.689l7.216,6.962c5.18,2.974,11.383,0.343,15.033-3.904   c1.187,0,1.696,0.594,1.866,1.697c-4.417,5.181-12.058,8.067-18.341,4.245l-0.254-0.17l-31.25-30.059l1.785-1.87l5.348,5.181   l14.265-14.69l-10.275-9.936l1.7-1.868l12.482,12.143c6.624-4.583,11.464-5.435,15.373-3.989c3.99,1.528,6.706,5.436,9.339,10.104   c0.339,0.594,0.169,1.357-0.422,1.698c-0.596,0.341-1.364,0.085-1.702-0.51c-2.375-4.162-4.838-7.644-8.063-8.916   c-3.061-1.189-7.052-0.426-12.658,3.396l18.426,17.832c2.381,0.765,4.845,0.765,7.308,0.17c2.627-0.681,5.349-2.122,8.151-4.077   C375.138,246.444,375.565,247.208,375.396,248.398L375.396,248.398z"/>
	<rect x="40.987" y="217.997" opacity="0.1" fill="#00A9A0" enable-background="new    " width="5.69" height="18.599"/>
	<path opacity="0.1" fill="#00A9A0" enable-background="new    " d="M48.716,234.302h0.255c5.517,0,10.02,4.501,10.02,9.935v19.956   c0,5.519-4.502,10.02-10.02,10.02H39.29c-5.52,0-9.935-4.501-9.935-10.02v-19.956c0-5.35,4.244-9.765,9.595-9.935v4.33h9.765   L48.716,234.302L48.716,234.302z"/>
	<path opacity="0.1" fill="#00A9A0" enable-background="new    " d="M35.809,241.01h16.728c0.339,0,0.679,0.34,0.679,0.765v9.85   c0,0.34-0.339,0.681-0.679,0.681H35.809c-0.427,0-0.766-0.341-0.766-0.681v-9.85C35.042,241.349,35.381,241.01,35.809,241.01   L35.809,241.01z"/>
	<path opacity="0.1" fill="#00A9A0" enable-background="new    " d="M39.033,255.021h10.192c0.339,0,0.679,0.339,0.679,0.679v4.416   c0,0.341-0.34,0.68-0.679,0.68H39.033c-0.339,0-0.594-0.339-0.594-0.68V255.7C38.438,255.36,38.693,255.021,39.033,255.021   L39.033,255.021z"/>
	<path opacity="0.1" fill="#00A9A0" enable-background="new    " d="M44.129,256.465c0.848,0,1.445,0.595,1.445,1.444   c0,0.763-0.597,1.441-1.445,1.441c-0.764,0-1.442-0.68-1.442-1.441C42.687,257.058,43.365,256.465,44.129,256.465L44.129,256.465z"/>
	<path opacity="0.1" fill="#00A9A0" enable-background="new    " d="M43.111,217.997h1.527c0.254,0,0.427,0.168,0.427,0.425v5.773   c0,0.17-0.172,0.425-0.427,0.425h-1.527c-0.254,0-0.424-0.255-0.424-0.425v-5.773C42.687,218.165,42.856,217.997,43.111,217.997   L43.111,217.997z"/>
	<path opacity="0.1" fill="#00A9A0" enable-background="new    " d="M225.854,216.723h36.598v36.344   c0,7.897-5.011,14.605-11.974,17.239v-6.878h-1.188v-7.051c0-2.716-2.548-4.585-5.096-4.585c-2.633,0-5.18,1.869-5.18,4.585v7.051   h-1.104v6.878c-7.048-2.634-12.056-9.342-12.056-17.239V216.723z"/>
	<path opacity="0.1" fill="#00A9A0" enable-background="new    " d="M241.391,244.321h6.37c0.257,0,0.427,0.17,0.427,0.426v3.143   c0,0.255-0.17,0.425-0.427,0.425h-6.37c-0.254,0-0.508-0.17-0.508-0.425v-3.143C240.883,244.491,241.137,244.321,241.391,244.321   L241.391,244.321z"/>
	<path opacity="0.1" fill="#00A9A0" enable-background="new    " d="M250.986,244.321h6.37c0.257,0,0.427,0.17,0.427,0.426v3.143   c0,0.255-0.17,0.425-0.427,0.425h-6.37c-0.253,0-0.508-0.17-0.508-0.425v-3.143C250.478,244.491,250.733,244.321,250.986,244.321   L250.986,244.321z"/>
	<path opacity="0.1" fill="#00A9A0" enable-background="new    " d="M231.796,244.321h6.37c0.253,0,0.508,0.17,0.508,0.426v3.143   c0,0.255-0.255,0.425-0.508,0.425h-6.37c-0.254,0-0.423-0.17-0.423-0.425v-3.143C231.373,244.491,231.542,244.321,231.796,244.321   L231.796,244.321z"/>
	<rect x="240.119" y="265.719" opacity="0.1" fill="#00A9A0" enable-background="new    " width="8.069" height="9.767"/>
	<path opacity="0.1" fill="#00A9A0" enable-background="new    " d="M244.194,254.002L244.194,254.002   c1.615,0,2.888,1.104,2.888,2.377v8.662h-5.86v-8.662C241.222,255.106,242.583,254.002,244.194,254.002L244.194,254.002z"/>
	<path opacity="0.1" fill="#00A9A0" enable-background="new    " d="M232.559,223.516h23.694c0.594,0,1.018,0.424,1.018,1.019   v13.928c0,0.51-0.424,0.935-1.018,0.935h-23.694c-0.508,0-1.018-0.425-1.018-0.935v-13.928   C231.542,223.94,232.051,223.516,232.559,223.516L232.559,223.516z"/>
	<path opacity="0.1" fill="#00A9A0" enable-background="new    " d="M244.194,254.936c1.191,0,2.209,0.594,2.209,1.355   c0,0.767-1.018,1.361-2.209,1.361c-1.188,0-2.121-0.596-2.121-1.361C242.073,255.53,243.007,254.936,244.194,254.936   L244.194,254.936z"/>
	<path opacity="0.1" fill="#00A9A0" enable-background="new    " d="M441.458,214.599c-0.258-0.338-0.169-0.935,0.17-1.188   c0.427-0.341,0.938-0.255,1.188,0.169c3.142,4.075,5.435,7.727,5.861,10.613c0.339,3.057-1.193,5.096-5.774,5.69   c0.422,3.565-0.339,5.944-2.041,7.302c-0.083,0.085-0.253,0.256-0.34,0.256c20.555,1.783,25.983,25.05,24.456,41.524l-16.471-0.086   c-2.21-11.633,4.073-32.438-8.495-37.276c0.341,0.679,0.259,1.355-0.421,2.12l-0.509,0.342c-0.339,0-0.678,0-1.023,0   c-0.509,0-0.93,0-1.27,0c1.527,6.792,0,10.104-3.312,11.293l0,0c-3.061,1.104-4.418,0.255-9.684-1.443   c-0.509-0.169-0.761-0.681-0.592-1.104c0.17-0.425,0.679-0.68,1.1-0.594c4.928,1.612,5.944,2.464,8.578,1.528l0,0   c2.463-0.936,3.481-3.565,2.206-9.257c-0.42-1.02,0-1.614,0.766-1.953c0.598-0.254,1.445-0.254,2.207-0.169h0.346   c-0.088-0.255-0.258-0.425-0.517-0.595c-0.591-0.595-1.438-1.104-2.375-1.699c-1.356-0.764-2.715-1.612-3.568-2.548l0.854-1.358   c3.313,0.85,5.605,0.765,6.963-0.338c1.357-1.021,1.784-3.228,1.357-6.54l-0.17-0.934l0.936-0.085   c3.903-0.34,5.26-1.783,5.009-3.907C446.636,221.902,444.431,218.422,441.458,214.599L441.458,214.599z"/>
	<path opacity="0.1" fill="#00A9A0" enable-background="new    " d="M442.137,225.98c1.02,0,1.784,0.338,1.784,0.764   c0,0.423-0.766,0.764-1.784,0.764c-1.018,0-1.784-0.341-1.784-0.764C440.353,226.318,441.119,225.98,442.137,225.98L442.137,225.98   z"/>
	<path opacity="0.1" fill="#00A9A0" enable-background="new    " d="M438.06,238.378c-0.591,0.085-1.27,0.085-1.948,0.085   l0.251,0.17c0.427,0.255,0.936,0.51,1.357,0.765C437.807,239.056,437.889,238.719,438.06,238.378L438.06,238.378z"/>
	<path opacity="0.1" fill="#00A9A0" enable-background="new    " d="M453.178,271.58c0,1.698,1.445,3.059,3.056,3.059   c1.702,0,3.06-1.359,3.06-3.059s-1.357-3.058-3.06-3.058C454.623,268.522,453.178,269.881,453.178,271.58L453.178,271.58z"/>
	<path opacity="0.1" fill="#00A9A0" enable-background="new    " d="M558.733,235.067v1.355h-0.428v13.417   c1.022,0.085,2.041-0.085,3.143-0.34c2.124-0.509,4.247-1.611,6.454-3.228c1.021,0.085,1.361,0.681,1.191,1.7   c-2.381,1.695-4.844,2.886-7.138,3.48c-1.271,0.339-2.545,0.424-3.732,0.424c-0.088,0.85-0.427,1.699-0.768,2.379   c-0.591,1.188-1.608,2.207-2.715,2.887c-1.104,0.681-2.381,1.104-3.738,1.188c-1.188,0.085-2.375-0.085-3.563-0.594l-0.26,0.34   l-1.187-0.679v0.084c-0.088,0.17-0.341,0.17-0.51,0.085l-0.768-0.426l-3.563,3.736l4.33,4.16c4.16,2.378,9.169,0.339,12.06-3.057   c0.93-0.085,1.356,0.424,1.526,1.272c-3.568,4.161-9.679,6.453-14.691,3.397l-0.17-0.086l-24.966-24.031l1.445-1.441l2.204,2.121   l11.382-11.804l-6.196-5.857l1.438-1.445c8.918,8.662,17.155,16.645,26.155,25.306c0.345,0.169,0.767,0.254,1.192,0.34v-13.332   h-0.427v-1.355h-0.082c-0.169,0-0.339-0.172-0.339-0.342v-1.273c0-0.085,0-0.17,0.081-0.17c-1.696-0.679-2.973-2.294-2.973-4.245   c0-2.463,2.036-4.417,4.499-4.417c2.464,0,4.506,1.954,4.506,4.417c0,1.951-1.275,3.566-2.973,4.245c0,0,0.083,0.085,0.083,0.17   v1.273c0,0.17-0.171,0.342-0.341,0.342h-0.165V235.067z M558.99,232.009L558.99,232.009c-0.088,0.086-0.175,0.172-0.088,0.256   l0.341,0.425c-0.428,0.169-0.938,0.339-1.358,0.339c0,0,0,0,0-0.085v-0.509c0-0.17-0.087-0.254-0.258-0.254l0,0   c-0.081,0-0.17,0.084-0.17,0.254v0.509c0,0.085,0,0.085,0,0.085c-0.508,0-0.93-0.085-1.356-0.255c0,0,0.089,0,0.089-0.084   l0.251-0.425c0.088-0.084,0.088-0.17,0-0.256l0,0c-0.082,0-0.171,0-0.251,0.086l-0.341,0.51l0,0   c-0.345-0.17-0.598-0.34-0.854-0.596l0.427-0.341c0.083-0.084,0.083-0.254,0-0.338c-0.088-0.17-0.257-0.17-0.338,0l-0.428,0.338   c-0.252-0.254-0.509-0.595-0.68-0.935l0.598-0.254c0.082,0,0.082-0.085,0.082-0.17c-0.082-0.085-0.17-0.17-0.252-0.085l-0.51,0.17   c-0.171-0.34-0.257-0.68-0.257-1.104h0.597c0.082,0,0.252-0.084,0.252-0.254c0-0.084-0.17-0.255-0.252-0.255h-0.597   c0-0.341,0.086-0.765,0.257-1.104l0.51,0.255h0.082c0.088,0,0.088-0.086,0.17-0.086c0-0.084,0-0.255-0.082-0.255l-0.51-0.256   c0.082-0.339,0.34-0.593,0.592-0.933l0.428,0.425c0,0.085,0.081,0.085,0.168,0.085c0,0,0.082,0,0.17-0.085   c0.083-0.085,0.083-0.255,0-0.34l-0.427-0.424c0.257-0.255,0.597-0.425,0.937-0.596l0.258,0.511c0,0.085,0.081,0.085,0.17,0.085   l0,0c0.082,0,0.17-0.17,0.17-0.255l-0.259-0.512c0.341-0.085,0.681-0.17,1.106-0.17v0.512c0,0.17,0.081,0.255,0.251,0.255   c0.171,0,0.258-0.085,0.258-0.255v-0.512c0.422,0,0.761,0.085,1.105,0.17l-0.175,0.597c-0.082,0.085,0,0.17,0.087,0.17l0,0   c0.088,0,0.17,0,0.17-0.085l0.257-0.511c0.341,0.171,0.68,0.341,0.932,0.596l-0.422,0.424c-0.087,0.085-0.087,0.255,0,0.34   c0.081,0.085,0.17,0.085,0.17,0.085c0.082,0,0.17,0,0.17-0.085l0.421-0.425c0.257,0.34,0.509,0.679,0.681,1.018l-0.593,0.171   c-0.088,0.086-0.088,0.171-0.088,0.255c0.088,0.086,0.088,0.086,0.17,0.086h0.087l0.511-0.255c0.082,0.34,0.17,0.764,0.251,1.104   h-0.592c-0.17,0-0.257,0.171-0.257,0.255c0,0.17,0.087,0.254,0.257,0.254h0.592c-0.081,0.425-0.169,0.765-0.251,1.188l-0.511-0.255   c-0.087,0-0.169,0-0.257,0.085c0,0.085,0,0.17,0.088,0.255l0.51,0.169c-0.171,0.34-0.341,0.681-0.598,0.935l-0.421-0.338   c-0.088-0.17-0.259-0.17-0.34,0c-0.087,0.084-0.087,0.254,0,0.338l0.422,0.341c-0.252,0.256-0.509,0.426-0.762,0.511l-0.256-0.425   C559.16,232.009,559.072,232.009,558.99,232.009L558.99,232.009z"/>
	<path opacity="0.1" fill="#00A9A0" enable-background="new    " d="M548.119,256.465c0.931,0.425,1.866,0.595,2.803,0.51   c1.1-0.085,2.206-0.425,3.055-1.02c0.938-0.595,1.697-1.356,2.213-2.377c0.339-0.511,0.509-1.189,0.678-1.784   c-0.678-0.17-1.362-0.339-2.042-0.508l-0.421-0.256l-1.954-1.868l-5.436,5.604l0.168,0.085c0.089,0.085,0.17,0.34,0.089,0.509   l-0.089,0.085l1.188,0.679L548.119,256.465z"/>
	<path opacity="0.1" fill="#00A9A0" enable-background="new    " d="M558.055,228.782l-0.339-2.293l-0.428,2.293   c-0.339,0.086-0.51,0.425-0.51,0.679c0,0.511,0.34,0.85,0.849,0.85c0.428,0,0.849-0.339,0.849-0.765   C558.476,229.207,558.307,228.953,558.055,228.782L558.055,228.782z"/>
	<path opacity="0.1" fill="#00A9A0" enable-background="new    " d="M641.952,221.902c1.784,0.682,3.06,2.378,3.06,4.416v32.947   c0,1.955-1.274,3.736-3.06,4.418V221.902z"/>
	<path opacity="0.1" fill="#00A9A0" enable-background="new    " d="M637.452,213.582c0.767,0,1.526,0.339,2.124,0.85l0,0   c0.51,0.594,0.849,1.357,0.849,2.208v49.592c0,0.766-0.339,1.527-0.849,2.122c-0.597,0.51-1.357,0.851-2.124,0.851   c-0.849,0-1.615-0.341-2.206-0.851l0,0c-0.515-0.595-0.854-1.356-0.854-2.122v-49.592c0-0.851,0.34-1.614,0.854-2.208l0,0   C635.837,213.921,636.604,213.582,637.452,213.582L637.452,213.582z"/>
	<path opacity="0.1" fill="#00A9A0" enable-background="new    " d="M653.753,227.252c-3.651,0-6.623,3.059-6.623,6.708   c0,2.89,1.784,5.353,4.336,6.285c0,0.085,0,0.17,0,0.254v1.955c0,0.254,0.169,0.508,0.508,0.508h0.083v1.955h1.188v28.021h-28.699   v-7.982h1.019v-0.933h7.303v-42.459h-14.266c-2.545,0-4.757,2.122-4.757,4.754v32.947c0,2.549,2.123,4.673,4.669,4.758v0.933h0.938   v13.162v0.508h0.427h48.229h0.51v-0.508v-16.644h0.596h0.51v-0.51v-0.596c1.357-0.424,2.545-1.442,3.399-2.886   c0.93-1.529,1.438-3.482,1.438-5.605c0-2.378-0.68-4.586-1.783-6.197c-1.188-1.613-2.798-2.635-4.582-2.635   s-3.399,1.021-4.588,2.635c-1.105,1.611-1.783,3.819-1.783,6.197c0,2.123,0.508,4.076,1.443,5.605   c0.85,1.442,2.036,2.462,3.395,2.886v0.596v0.51h0.515h0.423v16.134h-47.213v-12.652h1.188v-0.933h0.937v0.933h1.02v8.493v0.508   h0.509h29.717h0.516v-0.508v-28.532h1.27v-1.955h0.089c0.338,0,0.508-0.254,0.508-0.508v-1.955c0-0.084,0-0.169,0-0.254   c2.546-0.934,4.331-3.396,4.331-6.285C660.465,230.309,657.493,227.252,653.753,227.252L653.753,227.252z M655.796,238.378   L655.796,238.378c-0.089,0.085-0.17,0.255-0.089,0.341l0.51,0.679c-0.68,0.339-1.356,0.509-2.036,0.509c0,0,0,0,0-0.085v-0.849   c0-0.169-0.17-0.34-0.34-0.34l0,0c-0.17,0-0.34,0.171-0.34,0.34v0.849c0,0.085,0,0.085,0,0.085c-0.678,0-1.356-0.17-1.954-0.424   l0,0l0.51-0.764c0.088-0.086,0.088-0.256-0.083-0.341l0,0c-0.087-0.085-0.257,0-0.339,0.085l-0.509,0.765c0,0,0,0,0,0.085   c-0.428-0.255-0.854-0.509-1.275-0.85l0.592-0.595c0.17-0.17,0.17-0.425,0-0.596c-0.17-0.085-0.341-0.085-0.511,0l-0.591,0.681   c-0.427-0.51-0.678-0.936-0.936-1.529l0.767-0.255c0.169-0.084,0.169-0.254,0.169-0.338c-0.087-0.17-0.257-0.17-0.339-0.17   L648.235,236c-0.251-0.509-0.341-1.104-0.341-1.612h0.851c0.169,0,0.339-0.172,0.339-0.428c0-0.169-0.17-0.339-0.339-0.339h-0.851   c0-0.594,0.09-1.188,0.341-1.696l0.767,0.34h0.082c0.088,0,0.17-0.084,0.257-0.17c0-0.086,0-0.257-0.169-0.342l-0.767-0.339   c0.258-0.511,0.597-0.935,0.936-1.358l0.591,0.594c0.089,0.085,0.17,0.085,0.26,0.085c0.08,0,0.169,0,0.25-0.085   c0.171-0.169,0.171-0.424,0-0.509l-0.591-0.595c0.421-0.424,0.932-0.764,1.445-0.935l0.339,0.765   c0.082,0.085,0.169,0.17,0.252,0.17c0,0,0,0,0.087-0.085c0.083,0,0.171-0.17,0.083-0.254l-0.253-0.85   c0.51-0.17,1.021-0.255,1.61-0.34v0.851c0,0.254,0.169,0.423,0.339,0.423c0.258,0,0.428-0.169,0.428-0.423v-0.851   c0.597,0.085,1.188,0.17,1.696,0.424l-0.34,0.766c-0.081,0.084,0,0.254,0.17,0.339c0,0,0,0,0.089,0c0.081,0,0.168-0.085,0.168-0.17   l0.34-0.765c0.51,0.257,1.02,0.511,1.445,0.935l-0.597,0.595c-0.17,0.085-0.17,0.34,0,0.509c0.088,0.085,0.17,0.085,0.258,0.085   c0.083,0,0.169,0,0.252-0.085l0.597-0.594c0.339,0.425,0.679,0.934,0.93,1.443l-0.76,0.339c-0.17,0-0.17,0.171-0.17,0.343   c0.081,0.084,0.17,0.084,0.252,0.084h0.087l0.761-0.34c0.258,0.595,0.34,1.104,0.34,1.696h-0.849c-0.17,0-0.339,0.17-0.339,0.339   c0,0.256,0.169,0.428,0.339,0.428h0.849c0,0.594-0.169,1.104-0.34,1.697l-0.761-0.339c-0.169-0.085-0.258,0-0.339,0.085   c-0.089,0.169,0,0.254,0.17,0.338l0.76,0.342c-0.251,0.508-0.591,1.018-0.93,1.442l-0.597-0.681c-0.169-0.085-0.422-0.085-0.51,0   c-0.17,0.171-0.17,0.426,0,0.596l0.597,0.595c-0.339,0.255-0.686,0.51-1.105,0.765l-0.51-0.765   C656.047,238.378,655.964,238.378,655.796,238.378L655.796,238.378z"/>
	<path opacity="0.15" fill="#67CDFD" enable-background="new    " d="M654.351,233.537l-0.51-3.396l-0.597,3.396   c-0.421,0.169-0.68,0.594-0.68,1.104c0,0.68,0.51,1.189,1.188,1.189c0.686,0,1.275-0.511,1.275-1.189   C655.028,234.216,654.777,233.791,654.351,233.537L654.351,233.537z"/>
	<path opacity="0.1" fill="#00A9A0" enable-background="new    " d="M638.471,215.535L638.471,215.535   c-0.252-0.341-0.598-0.511-1.019-0.511c-0.427,0-0.849,0.17-1.105,0.511l0,0c-0.34,0.254-0.51,0.68-0.51,1.104v49.592   c0,0.425,0.17,0.766,0.51,1.104l0,0c0.258,0.254,0.68,0.425,1.105,0.425c0.421,0,0.767-0.171,1.019-0.425   c0.339-0.339,0.51-0.68,0.51-1.104v-49.592C638.979,216.215,638.81,215.789,638.471,215.535L638.471,215.535z"/>
	<path opacity="0.1" fill="#00A9A0" enable-background="new    " d="M830.974,141.503c5.775,0,10.445-4.751,10.445-10.524   c0-5.775-4.67-10.447-10.445-10.447h-18.938v0.255c0,0.596-0.422,1.019-0.931,1.019h-4.337c-1.1,1.954-3.731,3.229-6.874,3.229   c-4.159,0-7.472-2.381-7.472-5.436c0-3.062,3.313-5.437,7.472-5.437c3.056,0,5.605,1.275,6.793,3.059h4.418   c0.509,0,0.931,0.424,0.931,1.021v0.34h18.938c6.794,0,12.398,5.605,12.398,12.398c0,6.874-5.604,12.396-12.398,12.396   c-3.059,0-5.943,0.082-8.916,0.082c-5.774,0-10.531,4.67-10.531,10.444c0,5.773,4.928,10.616,10.702,10.616l7.215-0.595   l-2.037-2.972c-0.768-1.019-1.019-2.379-0.85-3.569c0.252-1.271,0.938-2.461,2.036-3.224l20.128-14.184   c1.105-0.765,2.465-1.019,3.65-0.765c1.276,0.17,2.376,0.854,3.143,1.951l7.391,10.444c0.76,1.105,1.019,2.382,0.76,3.655   c-0.169,1.189-0.848,2.377-1.953,3.141l-9.935,6.966c0.596,0.848,0.854,1.948,0.854,3.055c0,1.784-0.686,3.313-1.786,4.416   c-1.104,1.104-2.632,1.786-4.328,1.786c-1.703,0-3.313-0.683-4.418-1.786c-0.088-0.169-0.258-0.257-0.34-0.427l-0.258,0.17   c-1.1,0.768-2.376,1.02-3.65,0.768c-1.188-0.169-2.375-0.85-3.143-1.954l-4.072-5.774l-8.577,0.678   c-6.88,0-12.397-5.604-12.397-12.396s5.519-12.398,12.397-12.398C825.029,141.503,827.915,141.503,830.974,141.503L830.974,141.503   z M849.568,165.369c-0.767-0.767-1.866-1.274-3.055-1.274c-1.274,0-2.294,0.509-3.143,1.274c-0.766,0.761-1.274,1.865-1.274,3.055   c0,1.275,0.509,2.379,1.274,3.143c0.849,0.767,1.867,1.273,3.143,1.273c1.188,0,2.288-0.508,3.055-1.273   c0.849-0.764,1.274-1.866,1.274-3.143C850.844,167.234,850.417,166.13,849.568,165.369L849.568,165.369z M805.5,119.596   c0-1.954-2.551-3.569-5.605-3.569c-3.061,0-5.604,1.615-5.604,3.569c0,1.953,2.545,3.565,5.604,3.565   C802.949,123.163,805.5,121.551,805.5,119.596L805.5,119.596z"/>
	<path opacity="0.15" fill="#67CDFD" enable-background="new    " d="M846.767,169.359l3.061,1.356l-2.464-2.293   c0.083-0.51-0.168-0.937-0.508-1.188c-0.598-0.338-1.275-0.168-1.702,0.426c-0.341,0.508-0.253,1.271,0.338,1.611   C845.918,169.529,846.345,169.529,846.767,169.359L846.767,169.359z"/>
	<path opacity="0.1" fill="#00A9A0" enable-background="new    " d="M772.596,252.612c1.445,0.937,2.803,2.294,3.819,3.99   c2.376,3.819,2.464,7.221,1.276,9.426c-0.511,0.937-1.193,1.697-2.043,2.209c-0.849,0.512-1.777,0.764-2.884,0.764   c-2.552,0.088-5.604-1.526-7.898-5.347c-1.106-1.701-1.697-3.569-1.866-5.267v-0.09c-0.17-1.607,0.169-3.142,0.848-4.328   l-0.428-0.68c-0.081-0.082-0.17-0.252-0.17-0.421l0,0c0-0.173,0-0.343,0-0.513l0,0c0.089-0.169,0.17-0.254,0.258-0.424l0,0   c0.083-0.087,0.17-0.259,0.34-0.341l0,0l0.259-0.087l-5.523-9.338c-0.848-1.526-2.294-2.464-3.903-2.891   c-1.613-0.422-3.311-0.252-4.845,0.682c-1.526,0.934-2.546,2.291-2.885,3.904c-0.425,1.616-0.254,3.313,0.678,4.84   c0.511,0.853,1.021,1.703,1.529,2.633c0.509,0.853,0.936,1.702,1.526,2.553v0.081l0,0c1.275,2.122,1.532,4.588,0.937,6.881   c-0.51,2.206-1.954,4.243-4.161,5.517v0.089l0,0c-2.206,1.271-4.669,1.527-6.878,0.93c-2.294-0.591-4.332-2.035-5.605-4.158l0,0   l-5.352-9.937c-7.979,2.124-16.644-1.526-20.463-9.168c-4.415-8.748-0.934-19.449,7.813-23.867   c8.744-4.41,19.445-0.93,23.859,7.817c4.418,8.745,0.934,19.443-7.811,23.86c-0.259,0.17-0.511,0.255-0.767,0.34   c1.529,1.866,3.229,5.604,4.247,7.979l0,0c0.339,0.68,0.509,1.188,0.679,1.53c0.935,1.529,2.38,2.547,3.99,2.973   c1.615,0.338,3.396,0.169,4.927-0.683c1.526-0.93,2.547-2.376,2.887-3.902c0.426-1.613,0.258-3.312-0.68-4.843   c-0.511-0.85-1.02-1.699-1.527-2.632c-0.511-0.852-0.935-1.699-1.527-2.631l0,0l0,0c-1.275-2.123-1.53-4.586-0.936-6.88   c0.509-2.294,1.953-4.33,4.159-5.604l0,0l0,0l0,0c2.207-1.272,4.671-1.527,6.883-0.934c2.288,0.512,4.329,1.951,5.604,4.162l0,0   l5.429,9.256c0.171-0.086,0.259-0.086,0.341-0.086l0,0c0.169-0.083,0.339-0.083,0.428,0l0,0c0.169,0,0.339,0.086,0.427,0.169l0,0   c0.169,0.088,0.251,0.17,0.339,0.34h0.082l0.428,0.767C769.793,251.256,771.238,251.763,772.596,252.612L772.596,252.612z"/>
	<path opacity="0.1" fill="#00A9A0" enable-background="new    " d="M715.105,241.401l-0.341-0.679l-0.086,0.937L715.105,241.401z    M716.038,239.79c-0.085,0-0.085,0.085-0.169,0.085c0,0.085,0,0.17,0,0.257c0.084,0.083,0.084,0.252,0.254,0.423   c0.084,0.257,0.17,0.427,0.254,0.509c0.088,0.088,0.088,0.088,0.17,0.088c0,0,0.088,0,0.17,0c0,0,0-0.088,0.088-0.088   c0-0.082,0-0.082,0-0.17c-0.088-0.17-0.088-0.339-0.258-0.51c-0.082-0.252-0.17-0.424-0.254-0.509c-0.086,0-0.086-0.085-0.17-0.085   H716.038L716.038,239.79z M715.869,239.535c0.169-0.084,0.338-0.17,0.508-0.084c0.17,0.084,0.428,0.339,0.598,0.681   c0.17,0.423,0.252,0.68,0.17,0.932c0,0.17-0.089,0.339-0.34,0.427c-0.17,0.082-0.34,0.082-0.512,0   c-0.17-0.088-0.424-0.339-0.594-0.679c-0.17-0.339-0.256-0.68-0.17-0.937C715.529,239.705,715.699,239.62,715.869,239.535   L715.869,239.535z M714.342,232.996c0.084,0.086,0.168,0.171,0.254,0.171c0.084,0.085,0.084,0.085,0.17,0   c0.085,0,0.17-0.085,0.17-0.171c0-0.084,0-0.172,0-0.254c-0.085-0.088-0.17-0.169-0.256-0.169c-0.084-0.088-0.084-0.088-0.17,0   c-0.084,0-0.168,0.081-0.168,0.169C714.342,232.824,714.342,232.912,714.342,232.996L714.342,232.996z M714.002,232.146   c0,0.087,0.085,0.169,0.17,0.169c0,0,0.085,0,0.17,0c0.084-0.082,0.084-0.082,0.084-0.169c0.084-0.083,0.084-0.17,0-0.253   c0,0-0.084-0.087-0.169-0.087c0,0-0.085,0-0.17,0c-0.085,0.087-0.085,0.087-0.085,0.17   C713.914,232.063,713.914,232.063,714.002,232.146L714.002,232.146z M714.087,232.573c-0.085,0-0.173,0-0.255-0.088   c-0.088,0-0.17-0.082-0.17-0.17c-0.087-0.169-0.087-0.252-0.087-0.422c0.087-0.17,0.169-0.257,0.339-0.338   c0.258-0.09,0.343-0.17,0.512-0.09c0.17,0,0.254,0.09,0.34,0.258c0.086,0.083,0.086,0.17,0.086,0.253   c0,0.087-0.086,0.17-0.172,0.257c0.172,0,0.256,0,0.342,0.082c0.085,0.088,0.169,0.17,0.253,0.258   c0.086,0.169,0.086,0.339,0.086,0.509c-0.086,0.17-0.254,0.255-0.425,0.424c-0.17,0.085-0.34,0.085-0.51,0.085   c-0.169-0.085-0.339-0.17-0.424-0.339c0-0.17-0.088-0.256-0.088-0.34C714.002,232.742,714.002,232.654,714.087,232.573   L714.087,232.573z M715.613,231.046c-0.084,0.082-0.084,0.082-0.084,0.17c-0.086,0-0.086,0.081,0,0.171   c0,0.08,0.084,0.251,0.17,0.508c0.085,0.17,0.17,0.34,0.254,0.422c0.085,0.088,0.17,0.088,0.17,0.088   c0.084,0.082,0.084,0.082,0.17,0c0,0,0.084,0,0.084-0.088c0,0,0-0.082,0-0.169c0-0.083-0.084-0.253-0.254-0.51   c-0.085-0.251-0.17-0.341-0.254-0.422c0-0.088-0.085-0.17-0.17-0.17H715.613L715.613,231.046z M715.443,230.788   c0.17-0.082,0.341-0.082,0.51,0c0.254,0.088,0.424,0.258,0.594,0.679c0.17,0.341,0.258,0.598,0.17,0.85   c0,0.17-0.082,0.339-0.252,0.427c-0.258,0.082-0.427,0.082-0.596,0c-0.17-0.088-0.34-0.339-0.596-0.679   c-0.169-0.34-0.254-0.678-0.169-0.849C715.105,231.046,715.273,230.876,715.443,230.788L715.443,230.788z M719.265,227.733   l-0.425,0.171l-0.678-1.363c-0.085,0.173-0.17,0.342-0.34,0.513l-0.17-0.34c0.086-0.086,0.17-0.173,0.256-0.343   c0.084-0.17,0.084-0.252,0.084-0.421l0.254-0.17L719.265,227.733z M720.88,226.458l0.169,0.34l-1.271,0.68   c-0.087-0.17-0.087-0.255-0.087-0.424c0-0.171,0.087-0.34,0.168-0.683c0.09-0.252,0.171-0.34,0.171-0.421   c0-0.17,0-0.259-0.081-0.259c0-0.081-0.09-0.169-0.171-0.169c0,0-0.087,0-0.172,0c-0.085,0.088-0.17,0.088-0.17,0.169   c0,0.089,0,0.17,0.085,0.259l-0.426,0.169c-0.085-0.258-0.085-0.428,0-0.509c0.085-0.17,0.171-0.34,0.341-0.427   c0.17-0.083,0.342-0.083,0.513,0c0.17,0,0.338,0.087,0.338,0.257c0.083,0.082,0.083,0.17,0.083,0.251c0,0.089,0,0.259,0,0.34   c0,0.088-0.083,0.17-0.083,0.34c-0.087,0.17-0.087,0.343-0.168,0.343c0,0.084,0,0.084,0,0.169L720.88,226.458z M721.049,224.761   c0,0.082-0.084,0.082-0.084,0.082c0,0.088,0,0.17,0,0.257c0,0.083,0.084,0.252,0.254,0.51c0.084,0.17,0.17,0.34,0.255,0.421   c0,0.088,0.085,0.088,0.171,0.088h0.085c0.084,0,0.084-0.088,0.084-0.088c0.086-0.081,0.086-0.081,0-0.17   c0-0.17-0.084-0.339-0.169-0.509c-0.086-0.252-0.171-0.421-0.256-0.421c-0.086-0.088-0.17-0.17-0.17-0.17   C721.135,224.761,721.135,224.761,721.049,224.761L721.049,224.761z M720.88,224.505c0.255-0.083,0.423-0.083,0.594-0.083   c0.17,0.17,0.339,0.341,0.594,0.68c0.17,0.422,0.256,0.68,0.17,0.931c0,0.17-0.17,0.34-0.338,0.427   c-0.171,0.083-0.341,0.083-0.511,0c-0.254-0.087-0.424-0.339-0.594-0.678c-0.17-0.34-0.255-0.68-0.17-0.849   C720.625,224.674,720.71,224.592,720.88,224.505L720.88,224.505z M726.313,227.646l-0.34,0.258l-0.764-1.446   c0,0.256-0.169,0.425-0.254,0.51l-0.169-0.34c0,0,0.084-0.17,0.169-0.257c0.085-0.17,0.085-0.34,0.085-0.421l0.339-0.17   L726.313,227.646z M726.908,226.541c0.086,0.173,0.171,0.173,0.255,0.257c0.085,0,0.17,0,0.255,0s0.085-0.084,0.085-0.17   c0.085-0.087,0-0.17,0-0.257c-0.085-0.17-0.17-0.252-0.255-0.252c-0.085-0.088-0.169-0.088-0.254,0c0,0-0.086,0.082-0.086,0.169   C726.908,226.371,726.908,226.458,726.908,226.541L726.908,226.541z M727.333,225.352l-0.339,0.17l-0.086-0.082   c-0.084,0-0.168,0-0.168,0c-0.088,0.082-0.17,0.082-0.17,0.251c0,0.089,0,0.259,0.082,0.428c0.088-0.169,0.172-0.258,0.256-0.339   c0.171-0.089,0.34-0.089,0.51,0c0.17,0.081,0.34,0.17,0.424,0.339c0.084,0.252,0.084,0.422,0,0.595c0,0.169-0.168,0.34-0.339,0.424   c-0.17,0.085-0.34,0.085-0.595,0c-0.168-0.084-0.338-0.34-0.509-0.68c-0.169-0.339-0.258-0.597-0.169-0.848   c0-0.17,0.169-0.34,0.34-0.51c0.17,0,0.338-0.087,0.424,0C727.163,225.1,727.248,225.183,727.333,225.352L727.333,225.352z    M728.182,224.761c-0.085,0-0.085,0-0.17,0.082c0,0,0,0.088,0,0.17c0.085,0.087,0.085,0.257,0.255,0.509   c0.085,0.258,0.171,0.339,0.256,0.428c0.085,0.081,0.085,0.169,0.17,0.169c0,0,0.084,0,0.168-0.088c0,0,0,0,0.086-0.081   c0,0,0-0.089,0-0.17c-0.086-0.089-0.086-0.258-0.254-0.51c-0.085-0.17-0.17-0.339-0.255-0.427   c-0.086-0.082-0.086-0.082-0.171-0.171C728.267,224.674,728.182,224.674,728.182,224.761L728.182,224.761z M728.012,224.422   c0.17-0.087,0.34-0.087,0.511,0c0.17,0.083,0.424,0.341,0.594,0.68c0.17,0.34,0.257,0.68,0.17,0.85c0,0.169-0.17,0.338-0.34,0.421   c-0.17,0.087-0.339,0.087-0.509,0c-0.171-0.083-0.426-0.252-0.596-0.68c-0.168-0.339-0.254-0.591-0.168-0.848   C727.674,224.674,727.842,224.505,728.012,224.422L728.012,224.422z M733.277,232.654l0.17,0.342l-1.359,0.68   c0-0.17,0-0.255,0-0.424c0-0.17,0.084-0.34,0.17-0.679c0.088-0.258,0.088-0.427,0.169-0.427c0-0.17,0-0.253-0.081-0.34   c0,0-0.088-0.083-0.174-0.083c-0.084-0.087-0.084-0.087-0.17,0c-0.084,0-0.17,0.083-0.17,0.17c0,0.083,0,0.17,0,0.253l-0.339,0.169   c-0.085-0.252-0.085-0.422,0-0.592c0.085-0.087,0.17-0.258,0.339-0.338c0.17-0.09,0.34-0.09,0.514-0.09   c0.168,0.09,0.25,0.17,0.338,0.341c0.082,0.087,0.082,0.17,0.082,0.257c0,0.083,0,0.253,0,0.34c0,0.082-0.082,0.17-0.082,0.34   c-0.088,0.169-0.17,0.251-0.17,0.339c0,0.084,0,0.084,0,0.17L733.277,232.654z M733.447,230.958l-0.084,0.088   c0,0.082,0,0.17,0,0.251c0,0.09,0.084,0.26,0.17,0.428c0.17,0.253,0.254,0.423,0.339,0.51c0,0.082,0.085,0.082,0.169,0.082h0.085   c0.085,0,0.085-0.082,0.085-0.082c0-0.087,0-0.087,0-0.17c0-0.17-0.085-0.34-0.17-0.508c-0.084-0.26-0.254-0.429-0.254-0.511   c-0.084,0-0.17-0.088-0.17-0.088C733.533,230.958,733.533,230.958,733.447,230.958L733.447,230.958z M733.277,230.706   c0.17-0.173,0.426-0.173,0.595-0.088c0.169,0.088,0.339,0.34,0.509,0.679c0.254,0.428,0.254,0.681,0.254,0.938   c-0.084,0.17-0.168,0.252-0.338,0.421c-0.171,0.088-0.34,0.088-0.594,0c-0.17-0.081-0.34-0.339-0.51-0.678   c-0.17-0.421-0.259-0.681-0.259-0.932C733.023,230.876,733.108,230.788,733.277,230.706L733.277,230.706z M734.975,230.194   c-0.085,0.085-0.085,0.085-0.17,0.169c0,0,0,0.086,0,0.17c0.085,0.085,0.085,0.255,0.255,0.513c0.085,0.17,0.171,0.341,0.256,0.421   c0.084,0.09,0.084,0.09,0.172,0.09c0.082,0,0.082,0,0.17,0c0,0,0-0.09,0.082-0.09c0-0.08,0-0.08,0-0.17   c-0.082-0.169-0.082-0.251-0.252-0.509c-0.089-0.255-0.173-0.425-0.258-0.425c-0.085-0.084-0.085-0.169-0.17-0.169H734.975   L734.975,230.194z M734.805,229.94c0.17-0.086,0.34-0.086,0.511-0.086c0.172,0.17,0.424,0.34,0.594,0.764   c0.169,0.34,0.257,0.598,0.169,0.849c0,0.171-0.082,0.341-0.339,0.428c-0.17,0.083-0.34,0.083-0.509,0   c-0.17-0.087-0.426-0.338-0.596-0.679c-0.168-0.34-0.254-0.683-0.168-0.853C734.467,230.109,734.635,230.024,734.805,229.94   L734.805,229.94z M733.787,241.32l0.17,0.339l-1.273,0.679c-0.088-0.169-0.088-0.257-0.088-0.427s0.088-0.422,0.17-0.679   c0.089-0.252,0.17-0.422,0.17-0.422c0-0.169,0-0.257,0-0.339c-0.081-0.089-0.17-0.089-0.17-0.089c-0.082-0.081-0.17-0.081-0.252,0   c-0.087,0-0.087,0.089-0.168,0.171c0,0.088,0,0.169,0.081,0.257l-0.425,0.17c-0.084-0.258-0.084-0.427,0-0.598   c0.086-0.081,0.17-0.252,0.344-0.339c0.25-0.085,0.42-0.085,0.59-0.085c0.088,0.085,0.259,0.172,0.343,0.342   c0,0.082,0.086,0.171,0.086,0.253c0,0.088,0,0.169-0.086,0.339c0,0.088,0,0.17-0.084,0.34c-0.085,0.169-0.085,0.257-0.085,0.339   c-0.086,0.088-0.086,0.088-0.086,0.17L733.787,241.32z M734.551,240.471l-0.34-0.598l-0.085,0.849L734.551,240.471z    M734.89,241.232l-0.169-0.422l-0.764,0.422l-0.17-0.34l0.17-1.614l0.34-0.17l0.593,1.192l0.256-0.087l0.17,0.258l-0.255,0.17   l0.17,0.339L734.89,241.232z M735.486,238.856c-0.088,0.082-0.088,0.082-0.088,0.082c0,0.088,0,0.17,0,0.258   c0,0.082,0.088,0.255,0.17,0.509c0.17,0.17,0.258,0.34,0.258,0.427c0.082,0.083,0.169,0.083,0.169,0.083c0.082,0,0.082,0,0.17,0   l0.083-0.083c0-0.087,0-0.087,0-0.172c0-0.17-0.083-0.34-0.171-0.509c-0.169-0.255-0.251-0.425-0.251-0.425   c-0.088-0.088-0.17-0.17-0.17-0.17C735.568,238.856,735.486,238.856,735.486,238.856L735.486,238.856z M735.314,238.599   c0.172-0.082,0.342-0.082,0.512-0.082c0.251,0.17,0.422,0.339,0.594,0.761c0.17,0.342,0.256,0.597,0.256,0.854   c-0.086,0.171-0.171,0.341-0.341,0.423c-0.17,0.088-0.427,0.088-0.597,0c-0.17-0.082-0.34-0.34-0.509-0.68   c-0.171-0.34-0.256-0.679-0.256-0.849C735.06,238.769,735.145,238.687,735.314,238.599L735.314,238.599z M722.066,245.65   c-0.084,0.084-0.084,0.084-0.084,0.17c-0.084,0-0.084,0.084,0,0.168c0,0.086,0.084,0.255,0.17,0.51   c0.084,0.17,0.17,0.34,0.255,0.428c0.085,0.081,0.169,0.081,0.169,0.081c0.085,0.089,0.085,0,0.17,0c0,0,0.084,0,0.084-0.081   c0-0.088,0-0.088,0-0.17c0-0.17-0.084-0.258-0.254-0.513c-0.084-0.255-0.169-0.423-0.254-0.423c0-0.086-0.086-0.17-0.17-0.17   H722.066L722.066,245.65z M721.898,245.392c0.168-0.082,0.338-0.082,0.509,0c0.254,0.088,0.423,0.258,0.593,0.682   c0.17,0.342,0.258,0.594,0.17,0.853c0,0.169-0.081,0.339-0.251,0.421c-0.258,0.087-0.427,0.087-0.597,0   c-0.17-0.082-0.34-0.341-0.594-0.68c-0.171-0.34-0.256-0.68-0.171-0.848C721.559,245.65,721.729,245.48,721.898,245.392   L721.898,245.392z M735.06,244.205L735.06,244.205c-0.17,0.339-0.085,0.679,0.256,0.849l1.868,1.104   c-1.188,1.358-2.549,2.634-4.159,3.569c-0.089-0.088-0.089-0.088-0.089-0.172l-1.018-2.039c-0.255-0.422-0.764-0.592-1.188-0.422   l0,0c-0.426,0.252-0.68,0.761-0.426,1.188l1.021,2.036c0,0.088,0.084,0.17,0.084,0.17c-1.615,0.767-3.313,1.187-5.096,1.357v-0.083   l0.34-2.379c0-0.339-0.253-0.682-0.592-0.682l0,0c-0.343,0-0.683,0.258-0.767,0.682l-0.255,2.29c0,0.089,0,0.172,0,0.259   c-1.358,0-2.718-0.17-3.991-0.51l0.681-2.208c0.17-0.513-0.085-1.021-0.595-1.191c-0.595-0.169-1.105,0.089-1.276,0.598   l-0.679,2.124c-1.44-0.509-2.803-1.359-3.989-2.294l1.444-1.696c0.252-0.258,0.252-0.682-0.088-0.936   c-0.254-0.259-0.678-0.17-0.934,0.084l-1.441,1.699c-1.104-1.019-2.039-2.211-2.803-3.48l2.036-1.021   c0.427-0.255,0.682-0.852,0.427-1.36c-0.257-0.509-0.852-0.679-1.359-0.421l-1.951,1.018c-0.684-1.444-1.021-2.973-1.191-4.499   l2.21-0.087c0.084-0.083,0.169-0.083,0.254-0.083c0.256-0.17,0.425-0.34,0.341-0.679c0-0.342-0.341-0.598-0.68-0.598l-2.209,0.171   c-0.085-1.527,0.084-2.974,0.509-4.417l2.124,0.678c0.256,0.088,0.51,0.088,0.68-0.082c0.255-0.088,0.424-0.257,0.51-0.596   c0.168-0.51-0.086-1.02-0.595-1.188l-2.12-0.679c0.508-1.445,1.355-2.803,2.29-3.991l1.7,1.445   c0.254,0.171,0.509,0.171,0.764,0.083c0,0,0.084-0.083,0.168-0.17c0.256-0.252,0.17-0.68-0.084-0.934l-1.697-1.442   c1.019-1.105,2.207-2.042,3.482-2.802l1.018,2.035c0.254,0.428,0.849,0.68,1.357,0.428c0.508-0.259,0.679-0.853,0.427-1.36   l-1.021-1.951c1.441-0.682,2.973-1.021,4.502-1.19l0.082,2.209c0.088,0.34,0.342,0.68,0.767,0.591c0.085,0,0.169,0,0.255-0.082   c0.17-0.087,0.34-0.339,0.34-0.598l-0.17-2.294c1.529,0,2.973,0.174,4.414,0.514l-0.679,2.209c-0.17,0.51,0.085,1.018,0.679,1.188   c0.258,0.088,0.509,0.088,0.678-0.085c0.259-0.085,0.429-0.255,0.513-0.509l0.68-2.12c1.443,0.508,2.803,1.27,3.99,2.29   l-1.441,1.699c-0.255,0.251-0.17,0.679,0.084,0.931c0.17,0.17,0.51,0.17,0.679,0.087c0.086,0,0.172-0.087,0.256-0.17l1.444-1.695   c1.103,1.019,2.035,2.205,2.8,3.48l-2.035,1.018c-0.426,0.253-0.683,0.851-0.426,1.358c0.256,0.509,0.85,0.679,1.357,0.427   l2.04-1.021c0.594,1.441,0.933,2.97,1.102,4.415l-2.208,0.17c-0.339,0.088-0.679,0.339-0.595,0.767c0,0.34,0.341,0.591,0.681,0.591   l2.293-0.17c0,1.533-0.17,2.974-0.509,4.418l-2.124-0.68c-0.595-0.169-1.104,0.086-1.273,0.68c-0.168,0.51,0.086,1.019,0.595,1.188   l2.124,0.679c-0.427,1.105-0.936,2.212-1.614,3.143l-1.955-1.101C735.738,243.783,735.314,243.864,735.06,244.205L735.06,244.205z    M724.361,235.206l-5.86-2.21l4.839,3.994c-0.082,0.849,0.342,1.609,1.105,2.036c1.02,0.679,2.379,0.252,3.058-0.848   c0.594-1.02,0.255-2.464-0.763-3.062C725.973,234.696,725.124,234.696,724.361,235.206L724.361,235.206z M715.443,242.081   l-0.17-0.34l-0.849,0.428l-0.169-0.341l0.253-1.613l0.341-0.17l0.594,1.188l0.256-0.082l0.17,0.251l-0.256,0.17l0.171,0.34   L715.443,242.081z"/>
	<path opacity="0.1" fill="#00A9A0" enable-background="new    " d="M794.657,49.861l3.563-24.458   c0.339-2.294,2.892-3.989,5.692-3.65h0.34l-4.757,32.777h-0.428C796.354,54.19,794.317,52.154,794.657,49.861L794.657,49.861z    M844.589,72.617l2.288-0.34c0.257,0,0.515,0.086,0.684,0.17c0.171,0.17,0.342,0.343,0.424,0.594   c6.962-5.266,11.292-15.029,9.086-30.143c-3.395-0.089-6.535-1.446-8.747-3.739c-2.375-2.294-3.821-5.519-3.821-9.087   c0-3.563,1.446-6.793,3.821-9.087c2.294-2.287,5.522-3.732,9.087-3.732c3.567,0,6.793,1.445,9.086,3.732   c2.294,2.294,3.739,5.522,3.739,9.087c0,3.568-1.445,6.793-3.739,9.087c-1.784,1.783-4.079,3.061-6.623,3.569   c2.463,16.896-2.973,27.681-11.293,33.285l-0.257,0.17l0.088,0.427c0,0.17,0,0.422-0.17,0.592c-0.17,0.169-0.339,0.338-0.598,0.338   l0,0l-1.274,0.17c-0.421,1.786-1.867,3.313-3.99,4.506c-2.545,1.44-6.027,2.288-9.848,2.288c-3.821,0-7.304-0.848-9.854-2.288   c-2.037-1.192-3.481-2.72-3.991-4.417V77.71c-0.082-0.081-0.257-0.17-0.339-0.17l-1.274-0.169l-0.17-0.082   c-0.341,0-0.592-0.34-0.592-0.679l0,0l0,0l0,0l0.082-0.169l-0.252-0.17c-0.17-0.088-0.258-0.17-0.428-0.258   c-6.792-4.329-11.461-11.551-11.122-20.977l-2.551-0.252l4.844-32.777l9.257,0.932c2.715,0.258,4.751,2.382,4.412,4.588   l-3.563,24.539c-0.34,2.293-2.891,3.908-5.692,3.649l-3.902-0.421c-0.17,7.898,3.563,14.011,9.087,17.915l0,0l0.251,0.089V73.21   v-0.08l0,0c0,0,0.089-0.089,0.089-0.171c0.169-0.256,0.422-0.427,0.76-0.427l2.552,0.34c0.081-0.082,0.17-0.169,0.252-0.255l0,0   c0.598-0.594,1.445-1.188,2.294-1.699c2.55-1.439,6.031-2.294,9.854-2.294c3.819,0,7.303,0.854,9.848,2.294   C843.226,71.428,843.992,71.94,844.589,72.617L844.589,72.617z M863.862,23.618c-1.696-1.609-3.903-2.633-6.453-2.633   c-2.546,0-4.839,1.022-6.454,2.633c-1.615,1.703-2.715,3.909-2.715,6.454c0,2.551,1.1,4.844,2.715,6.453   c1.615,1.615,3.908,2.721,6.454,2.721c2.55,0,4.757-1.104,6.453-2.721c1.614-1.609,2.633-3.902,2.633-6.453   C866.495,27.528,865.479,25.322,863.862,23.618L863.862,23.618z M818.688,77.799l-1.866-0.259l0,0 M817.58,72.278l2.804,0.34    M816.902,72.532c0.17-0.169,0.427-0.255,0.678-0.255 M816.481,73.13c0.081-0.258,0.169-0.427,0.421-0.598 M816.481,73.13   L816.481,73.13 M816.142,76.611v-0.339 M816.481,73.211V73.13 M816.142,76.611L816.142,76.611 M816.313,77.202   c-0.171-0.17-0.259-0.34-0.171-0.592l0,0 M816.82,77.54c-0.17,0-0.428-0.169-0.51-0.338"/>
	<path opacity="0.15" fill="#67CDFD" enable-background="new    " d="M854.438,28.036c-0.762,1.188-0.422,2.718,0.679,3.481   c0.848,0.509,1.873,0.509,2.633,0.087l6.454,2.8l-5.179-4.753c0.081-0.938-0.259-1.87-1.106-2.383   C856.818,26.509,855.202,26.848,854.438,28.036L854.438,28.036z"/>
	<path opacity="0.1" fill="#00A9A0" enable-background="new    " d="M932.021,122.556c-2.888-1.869-6.794-1.272-9.002,1.441   c-2.464,2.974-1.953,7.302,0.938,9.685c2.969,2.376,7.301,1.954,9.677-0.938c2.124-2.633,2.039-6.365-0.082-8.829l8.065-8.747   c4.075-0.427,6.963,0.51,9.002,2.715c1.954,2.213,3.058,5.775,3.312,10.532l-10.104,10.87l-2.633-2.551l-19.021,20.382l2.888,2.63   l-9.086,9.685c-4.758-0.088-8.408-0.937-10.786-2.803c-2.29-1.866-3.395-4.84-3.143-8.829l8.492-8.667l0.17,0.26   c0.254,0.082,0.594,0,0.764-0.17l2.293-2.383c1.615,0.341,3.651-0.34,5.267-2.035c2.207-2.205,2.719-5.267,1.02-6.877   c-1.612-1.612-4.67-1.104-6.879,1.103c-1.699,1.697-2.294,3.82-1.869,5.521l-2.291,2.289c-0.172,0.171-0.254,0.429-0.172,0.684   l0.172,0.17l-8.747,8.912c-0.169,0.089-0.255,0.343-0.255,0.598c-0.424,4.928,1.02,8.49,3.906,10.871   c2.888,2.294,7.133,3.313,12.652,3.313l0,0c0.34,0,0.594-0.088,0.764-0.34l9.256-9.853l4.588,4.329   c1.104,1.021,2.887,0.937,3.904-0.17l15.201-16.22c1.019-1.103,1.019-2.885-0.169-3.989l-4.758-4.499l10.361-10.953   c0.17-0.17,0.252-0.428,0.252-0.767l0,0c-0.252-5.519-1.526-9.682-3.99-12.48c-2.545-2.72-6.198-3.909-11.036-3.315   c-0.257,0-0.426,0.087-0.596,0.256L932.021,122.556z"/>
	<path opacity="0.1" fill="#00A9A0" enable-background="new    " d="M913.17,144.974c1.02,1.019,3.227,0.509,4.842-1.105   c1.611-1.697,2.121-3.903,1.019-4.921c-1.019-1.021-3.228-0.512-4.841,1.1C912.576,141.75,912.067,143.957,913.17,144.974   L913.17,144.974z"/>
	<path opacity="0.1" fill="#00A9A0" enable-background="new    " d="M939.748,135.379l0.51,0.51l-19.021,20.379l-0.511-0.51   c-1.104-1.019-1.188-2.802-0.17-3.989l15.201-16.22C936.775,134.442,938.561,134.361,939.748,135.379L939.748,135.379z"/>
	<path opacity="0.1" fill="#00A9A0" enable-background="new    " d="M924.89,125.698l0.169-0.254l-0.342,0.085L924.89,125.698z    M925.568,125.783c0-0.085,0-0.085,0-0.085s-0.085,0-0.085,0.085c0,0-0.085,0.088-0.169,0.088c0,0.082-0.087,0.169-0.087,0.169   c0,0.083,0,0.083,0,0.083c0,0.087,0,0.087,0,0.087s0,0,0.087,0l0,0c0.084-0.087,0.084-0.087,0.169-0.17   c0.085-0.087,0.085-0.169,0.169-0.169v-0.088C925.652,125.783,925.652,125.783,925.568,125.783L925.568,125.783z M925.652,125.613   c0.086,0.085,0.086,0.17,0.086,0.258c0,0.082,0,0.169-0.086,0.252c-0.084,0.17-0.254,0.17-0.338,0.258c0,0-0.087,0-0.171-0.088   c-0.086-0.083-0.086-0.083-0.086-0.17c0-0.083,0.086-0.17,0.17-0.34c0.087-0.085,0.171-0.17,0.256-0.17   S925.652,125.613,925.652,125.613L925.652,125.613z M927.777,124.087c-0.088,0.081-0.088,0.081-0.088,0.081   c0,0.089,0.088,0.089,0.088,0.089c0,0.081,0,0.081,0.082,0.081l0.087-0.081v-0.089c0-0.081,0-0.081,0-0.081   c-0.087,0-0.087-0.088-0.087,0C927.777,124.087,927.777,124.087,927.777,124.087L927.777,124.087z M928.031,123.829   c-0.085,0-0.085,0.088-0.085,0.088s0,0,0.085,0.082c0,0,0,0,0.086,0c0,0,0,0,0-0.082c0.084,0,0.084,0,0.084,0   c0-0.088,0-0.088-0.084-0.088C928.117,123.829,928.117,123.829,928.031,123.829L928.031,123.829L928.031,123.829z M927.859,123.917   v-0.088v-0.082c0.087-0.087,0.087-0.087,0.172-0.087c0.086,0,0.086,0,0.17,0.087c0.085,0,0.085,0.082,0.085,0.17   c0,0,0,0.082,0,0.17h-0.085c-0.084,0-0.084,0-0.084,0c0,0.081,0,0.081,0,0.17c0,0,0,0.081-0.086,0.081   c0,0.09-0.085,0.09-0.172,0.09c-0.082,0-0.082,0-0.17-0.09c-0.082,0-0.082-0.081-0.082-0.081c-0.088-0.089,0-0.17,0-0.258   c0.082,0,0.082-0.082,0.17-0.082H927.859L927.859,123.917z M928.625,124.257c0,0,0,0-0.084,0l0,0c-0.086,0-0.086,0.081-0.17,0.171   c-0.085,0.08-0.085,0.08-0.085,0.169c-0.085,0-0.085,0-0.085,0c0,0.082,0.085,0.082,0.085,0.082l0,0c0.085,0,0.085,0,0.085,0   c0.084,0,0.084-0.082,0.17-0.171c0.084-0.08,0.084-0.08,0.084-0.17V124.257L928.625,124.257L928.625,124.257z M928.71,124.168   c0.085,0,0.085,0.089,0.085,0.17c0,0.09,0,0.17-0.17,0.259c-0.084,0.169-0.17,0.252-0.254,0.252c-0.085,0-0.17,0-0.17-0.083   c-0.084,0-0.084-0.087-0.084-0.169c0-0.089,0-0.169,0.084-0.34c0.17-0.089,0.254-0.17,0.34-0.17   C928.625,124.087,928.625,124.087,928.71,124.168L928.71,124.168z M930.41,125.017l-0.173-0.083l0.425-0.509   c-0.082,0-0.17,0-0.252,0l0.082-0.17c0.088,0.081,0.088,0.081,0.17,0.081c0.087,0,0.087,0,0.169-0.081l0.088,0.081L930.41,125.017z    M931.089,125.359l-0.088,0.17l-0.421-0.425c0,0,0.082,0,0.082-0.087c0.087,0,0.169,0,0.339,0c0.088,0,0.088,0,0.173,0   c0-0.083,0.084-0.083,0.084-0.083v-0.087v-0.083c-0.084,0-0.084,0-0.084,0c-0.085,0-0.085,0-0.085,0.083l-0.17-0.17   c0.082-0.082,0.17-0.082,0.255-0.082c0,0,0.084,0,0.17,0.082c0,0.087,0.084,0.087,0.084,0.17c0,0.087,0,0.087-0.084,0.17   c0,0,0,0.087-0.086,0.087c0,0,0,0-0.084,0c0,0-0.085,0.086-0.173,0.086c-0.082,0-0.082,0-0.082,0c-0.088,0-0.088,0-0.088,0   L931.089,125.359z M931.682,125.19L931.682,125.19h-0.084c0,0-0.085,0.084-0.17,0.169c0,0.085-0.084,0.085-0.084,0.17v0.084l0,0   h0.084c0,0,0,0,0.085,0c0,0,0.085-0.084,0.085-0.169c0.084-0.085,0.084-0.085,0.17-0.17l0,0   C931.768,125.19,931.768,125.19,931.682,125.19L931.682,125.19z M931.768,125.104c0.086,0,0.17,0.086,0.17,0.17   c0,0.085-0.085,0.17-0.17,0.339c-0.086,0.085-0.17,0.17-0.34,0.17c0,0-0.084,0-0.17-0.085c-0.084,0-0.084-0.085-0.084-0.169   c0-0.085,0.084-0.17,0.17-0.255c0.084-0.17,0.169-0.257,0.254-0.257C931.682,125.017,931.768,125.017,931.768,125.104   L931.768,125.104z M931.513,127.48l-0.085-0.082l0.34-0.427c-0.086,0-0.17-0.082-0.255-0.082l0.085-0.09c0.084,0,0.084,0,0.17,0   s0.17,0,0.17,0l0.084,0.09L931.513,127.48z M932.021,127.567l-0.084,0.082c0,0.088,0.084,0.088,0.084,0.088s0,0,0.086,0   c0,0,0,0,0.084-0.088c0,0,0,0,0-0.082v-0.087h-0.084C932.107,127.48,932.021,127.48,932.021,127.567L932.021,127.567z    M932.531,127.48l-0.17-0.082c0,0,0.085,0,0.085-0.088c-0.085,0-0.085,0-0.085,0c0-0.082-0.085-0.082-0.085,0   c0,0-0.085,0-0.169,0.088c0.084,0,0.169,0,0.169,0c0.085,0.082,0.085,0.169,0.085,0.169c0,0.082,0,0.17-0.085,0.252   c0,0-0.085,0.088-0.169,0.088c-0.086,0-0.17,0-0.17-0.088c-0.086,0-0.086-0.082-0.086-0.17c0-0.082,0-0.169,0.086-0.339   c0.084-0.082,0.17-0.17,0.254-0.17c0.085,0,0.17,0,0.255,0.088c0.085,0,0.085,0.082,0.085,0.082   C932.531,127.398,932.531,127.48,932.531,127.48L932.531,127.48z M932.871,127.649h-0.086c0,0,0,0-0.084,0   c0,0.088-0.086,0.088-0.086,0.17c-0.084,0.088-0.169,0.171-0.169,0.171c0,0.086,0,0.086,0,0.086v0.083c0.085,0,0.085,0,0.085,0   h0.084c0-0.083,0.086-0.083,0.17-0.169c0-0.083,0.086-0.171,0.086-0.171c0-0.082,0-0.082,0-0.082V127.649L932.871,127.649z    M932.955,127.567c0,0.082,0.086,0.082,0.086,0.17c0,0.082-0.086,0.253-0.17,0.339c-0.086,0.083-0.17,0.17-0.256,0.17   c-0.084,0.085-0.169,0-0.254,0c0-0.087-0.085-0.087-0.085-0.17c0-0.086,0.085-0.257,0.17-0.339c0.085-0.088,0.169-0.17,0.255-0.17   C932.785,127.48,932.871,127.567,932.955,127.567L932.955,127.567z M930.831,130.71l-0.082,0.17l-0.427-0.34   c0-0.087,0.088-0.087,0.088-0.17c0.082,0,0.17,0,0.339,0c0.082,0,0.082,0,0.17,0l0.082-0.087V130.2c0,0,0,0,0-0.087   c-0.082,0-0.082,0-0.082,0c-0.088,0-0.088,0-0.088,0.087l-0.169-0.168c0.087,0,0.169-0.089,0.257-0.089c0,0,0.082,0.089,0.17,0.089   c0,0.081,0.085,0.081,0.085,0.168c0,0.083,0,0.17-0.085,0.17c0,0.083,0,0.083-0.088,0.083c0,0,0,0-0.082,0   c0,0.087-0.088,0.087-0.17,0.087c-0.087,0-0.087,0-0.087,0c-0.082,0-0.082,0-0.082,0L930.831,130.71z M931.513,130.54   c-0.085,0-0.085,0-0.085,0h-0.084c0,0-0.086,0.083-0.17,0.17c0,0.082-0.085,0.17-0.085,0.17v0.082l0,0   c0,0.088,0.085,0.088,0.085,0.088s0-0.088,0.084-0.088c0,0,0.086-0.082,0.086-0.17c0.084,0,0.084-0.082,0.169-0.082   c0-0.087,0-0.087,0-0.087C931.513,130.54,931.513,130.54,931.513,130.54L931.513,130.54z M931.598,130.453   c0,0,0.084,0.087,0.084,0.17c0,0.087-0.084,0.169-0.169,0.339c-0.085,0.088-0.169,0.169-0.255,0.169c-0.084,0-0.169,0-0.257,0   c-0.082-0.081-0.082-0.169-0.082-0.251c0-0.088,0.082-0.17,0.17-0.257c0.085-0.17,0.169-0.253,0.255-0.253   C931.428,130.37,931.513,130.37,931.598,130.453L931.598,130.453z M931.938,130.962L931.938,130.962h-0.085   c0,0-0.085,0.088-0.171,0.169c0,0.089-0.084,0.089-0.084,0.171c0,0,0,0,0,0.088l0,0c0,0,0,0,0.084,0l0,0   c0.086,0,0.086-0.088,0.171-0.17c0.085-0.089,0.085-0.089,0.169-0.17c0,0,0,0,0-0.088   C932.021,130.962,932.021,130.962,931.938,130.962L931.938,130.962z M932.021,130.88c0.086,0,0.086,0.082,0.086,0.17   c0,0.081,0,0.17-0.086,0.34c-0.084,0.084-0.255,0.17-0.341,0.17c0,0-0.084,0-0.169-0.086c-0.085,0-0.085-0.084-0.085-0.172   c0-0.082,0.085-0.171,0.17-0.252c0.084-0.17,0.17-0.258,0.255-0.258S932.021,130.792,932.021,130.88L932.021,130.88z    M927.859,132.325l-0.082,0.081l-0.429-0.339c0-0.085,0.089-0.085,0.089-0.085c0.082,0,0.17-0.085,0.252-0.085   c0.17,0,0.17,0,0.257,0c0,0,0,0,0.085-0.084c0,0,0,0,0-0.085l0,0c-0.085-0.085-0.085-0.085-0.085-0.085   c-0.087,0-0.087,0-0.087,0.085l-0.17-0.085c0.088-0.085,0.17-0.171,0.17-0.085c0.087,0,0.172,0,0.258,0   c0,0.085,0.084,0.17,0.084,0.17c0,0.085,0,0.169-0.084,0.169c0,0.085,0,0.085-0.086,0.085l-0.085,0.085c0,0-0.087,0-0.169,0   c-0.088,0-0.088,0-0.088,0c-0.082,0-0.082,0-0.082,0L927.859,132.325z M928.286,132.406l0.169-0.17l-0.338,0.089L928.286,132.406z    M928.117,132.664l0.084-0.088l-0.255-0.251l0.085-0.089l0.594-0.169l0.085,0.085l-0.339,0.343l0.084,0.081l-0.084,0.088h-0.085   l-0.085,0.082L928.117,132.664z M928.965,132.495L928.965,132.495c-0.085,0-0.085,0-0.085,0c-0.085,0.081-0.085,0.081-0.17,0.169   c-0.085,0.082-0.085,0.169-0.085,0.169v0.083l0,0c0,0.088,0,0.088,0.085,0.088c0,0,0,0,0-0.088c0.085,0,0.085-0.083,0.17-0.083   c0.085-0.087,0.085-0.169,0.085-0.169c0.085-0.088,0.085-0.088,0.085-0.088C929.05,132.495,928.965,132.495,928.965,132.495   L928.965,132.495z M929.05,132.406c0.085,0.089,0.085,0.089,0.085,0.17c0,0.088,0,0.17-0.085,0.34   c-0.17,0.088-0.255,0.17-0.34,0.17s-0.085,0-0.169,0c-0.086-0.082-0.086-0.17-0.086-0.253c0-0.087,0-0.169,0.17-0.257   c0.085-0.17,0.17-0.17,0.255-0.251C928.965,132.325,929.05,132.325,929.05,132.406L929.05,132.406z M924.465,128.84   c0-0.084,0-0.084-0.088-0.084v0.084c-0.082,0-0.082,0.086-0.17,0.171c-0.081,0-0.081,0.085-0.081,0.085   c-0.087,0.088-0.087,0.088-0.087,0.088c0,0.082,0.087,0.082,0.087,0.082l0,0c0.081,0,0.081,0,0.081,0   c0.088,0,0.088-0.082,0.17-0.17c0.088-0.085,0.088-0.085,0.088-0.17V128.84L924.465,128.84L924.465,128.84z M924.547,128.671   c0.088,0.085,0.088,0.169,0.088,0.256c0,0.084,0,0.169-0.17,0.257c-0.088,0.17-0.17,0.252-0.258,0.252   c-0.081,0-0.168,0-0.168-0.082c-0.082,0-0.082-0.088-0.082-0.17c0-0.088,0-0.173,0.082-0.344c0.168-0.084,0.256-0.169,0.338-0.169   C924.465,128.671,924.465,128.671,924.547,128.671L924.547,128.671z M927.01,133.173L927.01,133.173   c-0.084,0-0.254,0.082-0.254,0.252l-0.084,0.85c-0.68-0.251-1.356-0.51-1.955-0.931c0.088,0,0.088-0.089,0.088-0.089l0.595-0.679   c0.085-0.17,0.085-0.34-0.084-0.509l0,0c-0.171-0.085-0.341-0.085-0.511,0.085l-0.51,0.681l-0.088,0.083   c-0.508-0.51-0.933-1.019-1.271-1.615h0.086l0.849-0.251c0.17-0.088,0.17-0.17,0.17-0.34l0,0c-0.082-0.17-0.256-0.17-0.34-0.17   l-0.85,0.252c-0.085,0-0.085,0-0.085,0.088c-0.254-0.51-0.424-1.018-0.509-1.526l0.933-0.088c0.171,0,0.341-0.255,0.341-0.426   c-0.085-0.254-0.255-0.339-0.425-0.339l-0.934,0.085c0-0.596,0.085-1.188,0.254-1.785l0.85,0.259c0.085,0.082,0.255,0,0.255-0.169   c0.084-0.17,0-0.26-0.17-0.341l-0.849-0.257c0.254-0.51,0.509-1.019,0.849-1.527l0.68,0.595c0.168,0.085,0.426,0.085,0.508-0.085   c0.17-0.17,0.17-0.427,0-0.51l-0.678-0.598c0.426-0.421,0.848-0.76,1.358-1.1l0.425,0.761c0,0.088,0,0.088,0.086,0.088   c0.085,0.082,0.169,0.082,0.254,0c0.085,0,0.17-0.17,0.085-0.34l-0.425-0.766c0.595-0.255,1.104-0.425,1.696-0.511l0.089,0.85   c0,0.17,0.082,0.258,0.17,0.258c0,0.082,0.17,0.082,0.252,0.082c0.172,0,0.342-0.17,0.342-0.422l-0.084-0.852   c0.593,0,1.188,0.085,1.781,0.17l-0.255,0.852c-0.086,0.17,0,0.252,0.085,0.339c0,0,0,0,0.084,0c0.086,0.083,0.256,0,0.256-0.169   l0.254-0.852c0.597,0.173,1.104,0.512,1.615,0.852l-0.595,0.679c-0.086,0.17-0.086,0.341,0.084,0.51s0.426,0.082,0.511-0.089   l0.594-0.679c0.424,0.428,0.764,0.937,1.103,1.445l-0.763,0.424c-0.17,0-0.17,0.173-0.17,0.342c0.084,0,0.084,0,0.084,0.083   c0.086,0,0.17,0.087,0.256,0l0.852-0.425c0.251,0.512,0.424,1.104,0.509,1.7l-0.85,0.082c-0.257,0-0.427,0.169-0.427,0.427   c0.084,0.083,0.084,0.169,0.17,0.252c0.084,0,0.17,0.087,0.257,0.087l0.935-0.087c0,0.597-0.085,1.193-0.255,1.703l-0.853-0.258   c-0.084,0-0.254,0.088-0.254,0.169c-0.084,0.17,0,0.259,0.084,0.34c0,0,0,0,0.086,0l0.849,0.257   c-0.251,0.592-0.51,1.104-0.849,1.527l-0.68-0.509c-0.169-0.17-0.424-0.089-0.508,0c-0.17,0.17-0.086,0.425,0,0.594l0.678,0.513   c-0.339,0.509-0.848,0.849-1.357,1.101l-0.427-0.763c-0.082-0.087-0.17-0.169-0.339-0.087c-0.082,0.087-0.17,0.258-0.082,0.34   l0.421,0.767c-0.591,0.252-1.103,0.422-1.695,0.51l-0.087-0.849c0-0.17-0.169-0.341-0.424-0.341c-0.17,0-0.34,0.252-0.34,0.423   l0.086,0.848c-0.424,0-0.934,0-1.36-0.081l0.088-0.849C927.268,133.344,927.181,133.255,927.01,133.173L927.01,133.173z    M924.717,125.871l0.088-0.088l-0.258-0.254l0.088-0.085l0.594-0.17l0.087,0.085l-0.341,0.424l0.084,0.088l-0.084,0.082   l-0.085-0.082l-0.085,0.169L924.717,125.871z"/>
	<path opacity="0.15" fill="#67CDFD" enable-background="new    " d="M928.965,128.84c0-0.339-0.17-0.681-0.424-0.85l-0.086-2.461   l-0.678,2.378c-0.34,0.083-0.598,0.339-0.598,0.679c-0.085,0.51,0.34,0.938,0.767,1.02   C928.455,129.604,928.88,129.264,928.965,128.84L928.965,128.84z"/>
	<path opacity="0.1" fill="#00A9A0" enable-background="new    " d="M174.09,327.287c-0.088,1.696,0.509,2.548,1.357,2.548   c0.848,0.084,1.614-0.681,1.785-2.293c0.169-1.699-1.276-3.736-1.276-3.736S174.259,325.673,174.09,327.287L174.09,327.287z"/>
	<path opacity="0.1" fill="#00A9A0" enable-background="new    " d="M174.515,321.258l-12.568,11.634   c-0.594-0.511-1.53-0.511-2.124,0.085l-3.142,2.972c-1.188-0.426-2.548-0.169-3.481,0.682l-24.202,22.416l-1.867-1.953   c-0.34-0.342-0.936-0.422-1.361,0c-0.424,0.339-0.424,1.02-0.085,1.358l1.7,1.869l-3.824,3.481l-1.612-1.865l-0.933,0.93   l8.065,9.005l0.933-0.852l-1.612-1.781l3.905-3.568l1.7,1.783c0.424,0.425,1.019,0.425,1.442,0.086   c0.428-0.343,0.428-1.021,0.085-1.442l-1.867-1.872l24.285-22.501c0.936-0.85,1.275-2.208,0.936-3.396l3.227-2.889   c0.509-0.593,0.679-1.356,0.339-2.035l12.568-11.636c0.084-0.169,0.084-0.338,0-0.509   C174.854,321.173,174.684,321.173,174.515,321.258L174.515,321.258z"/>
	<path opacity="0.1" fill="#00A9A0" enable-background="new    " d="M157.02,340.788l-12.229,11.294l-0.593-0.68l-0.679-0.68   l-1.7-1.783l12.229-11.294c0.933-0.848,2.293-0.764,3.057,0.085C157.953,338.579,157.872,339.939,157.02,340.788L157.02,340.788z"/>
	<path opacity="0.1" fill="#00A9A0" enable-background="new    " d="M850.741,228.807c-0.087-1.188-0.938-2.546-2.123-3.056   l-14.862-6.623c-0.51-0.17-1.188-0.34-1.867-0.34s-1.274,0.17-1.783,0.34l-14.943,6.623c-1.106,0.51-2.04,1.866-2.04,3.056   c-0.084,0.597-0.512,15.288,2.209,20.127c2.715,4.757,14.859,16.307,15.367,16.646c0.512,0.252,1.19,0.421,1.87,0.421   c0.679,0,1.271-0.169,1.783-0.421c0.511-0.257,11.465-11.889,14.268-16.646C851.333,244.095,850.741,229.404,850.741,228.807   L850.741,228.807z"/>
	<path opacity="0.1" fill="#00A9A0" enable-background="new    " d="M834.861,238.32c0-0.678-0.34-1.276-0.853-1.784   c-0.594-0.425-1.272-0.679-2.121-0.679c-0.848,0-1.529,0.254-2.125,0.679c-0.593,0.508-0.763,2.375-0.763,3.059   c0,0.424-0.169,0.763-0.513,1.021c-0.338,0.34-0.764,0.422-1.271,0.422s-0.934-0.082-1.272-0.422   c-0.338-0.258-0.508-0.597-0.508-1.021c0-0.765,0.084-2.719,0.424-3.397s0.764-1.274,1.356-1.696   c0.595-0.51,1.271-0.937,2.124-1.189c0.765-0.255,1.612-0.425,2.548-0.425c0.849,0,1.696,0.17,2.545,0.425   c0.769,0.254,1.445,0.681,2.039,1.189c0.597,0.422,1.022,1.019,1.363,1.696c0.338,0.68,0.508,1.357,0.508,2.124   c0,0.422-0.17,0.76-0.508,1.019c-0.341,0.34-0.768,0.426-1.193,0.426c-0.509,0-0.934-0.086-1.272-0.426   C835.031,239.08,834.861,238.742,834.861,238.32L834.861,238.32z"/>
	<path opacity="0.1" fill="#00A9A0" enable-background="new    " d="M831.719,227.28c1.781,0,3.482,0.257,5.009,0.766   c1.616,0.593,2.975,1.358,4.161,2.376c1.188,0.938,2.125,2.123,2.805,3.399c0.677,1.356,1.018,2.715,1.018,4.241   c0,1.275-0.251,2.464-0.761,3.739c-0.088,0.081-0.17,0.17-0.17,0.252c-0.347,0.512-0.685,1.023-1.023,1.444   c-0.34,0.427-0.68,0.849-1.02,1.275c-0.338,0.509-0.679,0.849-1.019,1.188c-0.081,0.084-0.169,0.17-0.25,0.17   c-0.089,0.088-0.176,0.171-0.259,0.341c-0.427,0.339-0.767,0.766-0.937,1.018c-0.252,0.257-0.34,0.766-0.252,1.445   c0,1.355,0.081,2.375,0,3.057c0,0.594-0.088,1.104-0.169,1.53c-0.258,1.356-1.018,2.375-2.126,3.055   c-8.658,5.437,0.254-12.141,1.358-13.586c0.258-0.341,0.51-0.595,0.768-0.937c0.169-0.341,0.421-0.592,0.591-0.932   c0.258-0.257,0.428-0.509,0.598-0.767c0.169-0.339,0.252-0.679,0.339-1.104c0.089-0.424,0.089-0.765,0.089-1.19   c0-1.02-0.176-1.951-0.686-2.885c-0.421-0.848-1.101-1.614-1.866-2.293c-0.849-0.679-1.698-1.188-2.802-1.526   c-1.105-0.427-2.209-0.597-3.396-0.597c-1.274,0-2.378,0.17-3.48,0.597c-1.021,0.339-1.954,0.849-2.803,1.526   c-0.768,0.679-1.36,1.445-1.868,2.293c-0.427,0.934-0.171-0.509-0.171,0.422c0,0.512-0.256,0.937-0.594,1.275   c-0.425,0.339-0.938,0.51-1.529,0.51c-0.596,0-1.104-0.171-1.528-0.51c-0.424-0.34-0.593-0.765-0.593-1.275   c0-1.439-0.17-0.422,0.509-1.778c0.679-1.276,1.611-2.463,2.803-3.399c1.188-1.018,2.545-1.783,4.16-2.376   C828.15,227.537,829.85,227.28,831.719,227.28L831.719,227.28z"/>
	<path opacity="0.1" fill="#00A9A0" enable-background="new    " d="M356.896,352.741l-14.943-28.699l-14.776,28.699   c-2.972,10.023,6.623,18.003,14.858,18.003C350.272,370.744,360.292,362.933,356.896,352.741L356.896,352.741z"/>
	<path opacity="0.1" fill="#00A9A0" enable-background="new    " d="M355.2,354.356c0.085,0.169,0.085,0.424,0.085,0.594   c0,0,0,0.254,0,0.765c0,0.17,0,0.257,0,0.427s-0.085,0.421-0.085,0.591c0,0.509-0.085,0.937-0.17,1.445   c-0.085,0.254-0.085,0.509-0.17,0.767c-0.084,0.252-0.169,0.51-0.257,0.76c-0.082,0.598-0.421,1.106-0.591,1.7   c-0.342,0.514-0.597,1.021-0.937,1.53c-0.594,0.93-1.696,2.124-2.548,2.802c-0.424,0.34-0.933,0.681-1.442,1.02   c-3.227,3.313-10.614-5.605-1.785-6.032c4.248-0.169,5.775-7.893,5.012-8.15C353.584,352.231,354.86,353.08,355.2,354.356   L355.2,354.356z"/>
	<path opacity="0.1" fill="#00A9A0" enable-background="new    " d="M170.487,148.874h-7.217l-4.842-8.321   c-0.254-0.424-0.678-0.594-1.102-0.594h-9.681l-4.417-7.813l4.842-8.323c0.339-0.593,0.085-1.358-0.509-1.698   c-0.594-0.34-1.36-0.17-1.7,0.424l-4.839,8.408h-8.917l-4.842-8.408c-0.34-0.594-1.104-0.764-1.697-0.424   c-0.593,0.339-0.763,1.104-0.424,1.698l4.754,8.323l-4.754,8.407c-0.257,0.425-0.257,0.849,0,1.272l4.754,8.322l-4.415,7.727   h-7.644c-0.679,0-1.273,0.596-1.273,1.275s0.594,1.273,1.273,1.273h7.644l4.839,8.322c0.169,0.425,0.597,0.595,1.105,0.595h10.359   c0.424,0,0.849-0.17,1.103-0.595l4.756-8.322h9.681c0.424,0,0.848-0.255,1.102-0.679l4.842-8.323h7.217   c0.678,0,1.272-0.594,1.272-1.273C171.759,149.469,171.165,148.874,170.487,148.874L170.487,148.874z"/>
	<polygon opacity="0.1" fill="#00A9A0" enable-background="new    " points="132.104,133.419 132.104,133.419 141.021,133.419    145.521,141.146 141.021,148.874 132.104,148.874 127.605,141.146  "/>
	<polygon opacity="0.1" fill="#00A9A0" enable-background="new    " points="141.021,166.876 141.021,166.876 132.104,166.876    127.605,159.149 132.104,151.421 141.021,151.421 145.521,159.149  "/>
	<path opacity="0.1" fill="#00A9A0" enable-background="new    " d="M263.131,128.155L263.131,128.155   c1.188-2.04,0.424-4.67-1.697-5.775l-6.881-3.735c-2.036-1.188-4.668-0.423-5.857,1.698l-8.408,15.454l14.435,7.898   L263.131,128.155z"/>
	<path opacity="0.1" fill="#00A9A0" enable-background="new    " d="M239.695,136.476L239.695,136.476   c-0.424-0.255-1.021-0.085-1.191,0.34l-4.922,9c-0.255,0.426-0.085,0.935,0.338,1.189l14.438,7.896   c0.509,0.256,1.018,0.087,1.188-0.339l4.927-9c0.251-0.425,0.082-1.021-0.343-1.189L239.695,136.476z"/>
	<path opacity="0.1" fill="#00A9A0" enable-background="new    " d="M225.173,163.14c-1.104,2.037-0.339,4.671,1.7,5.773   l6.878,3.821c2.121,1.104,4.753,0.34,5.859-1.698l8.408-15.541l-14.436-7.812L225.173,163.14z"/>
	<path opacity="0.1" fill="#00A9A0" enable-background="new    " d="M251.669,123.314L251.669,123.314   c0.509,0.339,0.763,1.02,0.424,1.614c-0.343,0.593-1.022,0.764-1.616,0.423c-0.593-0.254-1.272-0.084-1.612,0.509   c-0.339,0.509-0.17,1.273,0.424,1.615c0.594,0.255,0.763,1.019,0.424,1.611c-0.255,0.512-1.019,0.767-1.527,0.34   c-0.597-0.255-0.852-1.019-0.512-1.526c0.342-0.595,1.021-0.765,1.615-0.425c0.594,0.255,1.272,0.085,1.612-0.511   c0.339-0.509,0.169-1.272-0.424-1.613c-0.593-0.254-0.763-1.019-0.424-1.614C250.393,123.229,251.072,123.057,251.669,123.314   L251.669,123.314z"/>
	<path opacity="0.1" fill="#00A9A0" enable-background="new    " d="M254.129,124.758L254.129,124.758   c0.594,0.34,0.852,1.104,0.512,1.612c-0.342,0.595-1.02,0.766-1.614,0.425c-0.594-0.339-1.275-0.085-1.615,0.428   c-0.34,0.593-0.17,1.271,0.427,1.61c0.594,0.339,0.764,1.021,0.424,1.616c-0.343,0.593-1.021,0.763-1.615,0.423   c-0.594-0.254-0.763-1.019-0.425-1.53c0.34-0.594,1.019-0.848,1.615-0.509c0.594,0.339,1.273,0.17,1.612-0.424   c0.339-0.508,0.17-1.272-0.424-1.613c-0.594-0.339-0.764-1.019-0.424-1.612C252.942,124.673,253.621,124.419,254.129,124.758   L254.129,124.758z"/>
	<path opacity="0.1" fill="#00A9A0" enable-background="new    " d="M256.678,126.2L256.678,126.2   c0.593,0.341,0.764,1.022,0.423,1.615c-0.254,0.593-1.018,0.763-1.612,0.423c-0.508-0.253-1.275-0.084-1.53,0.424   c-0.339,0.594-0.17,1.358,0.424,1.701c0.509,0.254,0.767,1.018,0.427,1.612c-0.339,0.508-1.105,0.678-1.615,0.339   c-0.594-0.254-0.764-1.019-0.424-1.527c0.339-0.596,1.018-0.766,1.612-0.424c0.509,0.254,1.275,0.085,1.615-0.51   c0.254-0.513,0.085-1.275-0.509-1.615c-0.508-0.253-0.766-1.017-0.427-1.613C255.405,126.115,256.083,125.946,256.678,126.2   L256.678,126.2z"/>
	<path opacity="0.1" fill="#00A9A0" enable-background="new    " d="M259.225,127.645L259.225,127.645   c0.595,0.34,0.763,1.018,0.425,1.611c-0.34,0.597-1.019,0.765-1.615,0.427c-0.509-0.343-1.272-0.085-1.612,0.423   c-0.339,0.596-0.17,1.274,0.424,1.613c0.594,0.34,0.766,1.021,0.509,1.613c-0.34,0.596-1.104,0.766-1.612,0.425   c-0.593-0.255-0.763-1.019-0.509-1.529c0.339-0.593,1.018-0.849,1.612-0.509c0.594,0.34,1.275,0.17,1.614-0.424   c0.34-0.509,0.17-1.274-0.427-1.612c-0.509-0.343-0.764-1.021-0.421-1.614C257.953,127.475,258.631,127.305,259.225,127.645   L259.225,127.645z"/>
	<path opacity="0.1" fill="#00A9A0" enable-background="new    " d="M234.005,160.592L234.005,160.592   c0.594,0.34,0.763,1.104,0.424,1.7c-0.339,0.509-1.103,0.679-1.611,0.339c-0.598-0.339-0.767-1.02-0.428-1.614   C232.729,160.423,233.496,160.253,234.005,160.592c0.594,0.34,1.272,0.17,1.615-0.339c0.338-0.594,0.251-1.271-0.343-1.612   c-0.594-0.34-0.763-1.104-0.424-1.614c0.339-0.593,1.105-0.764,1.616-0.423c0.593,0.339,0.763,1.103,0.338,1.612   c-0.254,0.595-0.936,0.766-1.53,0.425c-0.594-0.34-1.358-0.17-1.612,0.341C233.326,159.574,233.496,160.253,234.005,160.592   L234.005,160.592z"/>
	<path opacity="0.1" fill="#00A9A0" enable-background="new    " d="M236.553,162.122L236.553,162.122   c0.509,0.34,0.679,1.104,0.339,1.612c-0.339,0.594-1.021,0.765-1.615,0.424c-0.594-0.339-0.763-1.103-0.424-1.611   C235.192,161.951,235.958,161.781,236.553,162.122c0.509,0.34,1.188,0.17,1.613-0.34c0.338-0.595,0.085-1.273-0.425-1.614   c-0.593-0.424-0.763-1.103-0.423-1.698c0.338-0.511,1.102-0.681,1.615-0.339c0.593,0.339,0.764,1.104,0.424,1.613   c-0.342,0.509-1.105,0.764-1.616,0.424c-0.593-0.424-1.271-0.17-1.612,0.34C235.789,161.101,235.958,161.781,236.553,162.122   L236.553,162.122z"/>
	<path opacity="0.1" fill="#00A9A0" enable-background="new    " d="M238.932,163.649L238.932,163.649   c0.593,0.34,0.764,1.104,0.424,1.615c-0.342,0.594-1.021,0.764-1.616,0.425c-0.593-0.34-0.678-1.105-0.338-1.616   C237.655,163.479,238.419,163.31,238.932,163.649c0.593,0.34,1.357,0.17,1.696-0.338c0.34-0.595,0.17-1.274-0.423-1.699   c-0.509-0.254-0.764-1.021-0.425-1.614c0.34-0.508,1.104-0.678,1.697-0.339c0.509,0.339,0.679,1.019,0.34,1.613   c-0.34,0.595-1.019,0.765-1.612,0.34c-0.509-0.254-1.273-0.169-1.612,0.424C238.25,162.631,238.419,163.31,238.932,163.649   L238.932,163.649z"/>
	<path opacity="0.1" fill="#00A9A0" enable-background="new    " d="M234.005,155.073L234.005,155.073   c0.594,0.338,0.763,1.104,0.424,1.614c-0.424,0.593-1.103,0.763-1.699,0.423c-0.509-0.339-1.188-0.169-1.612,0.34   c-0.255,0.594-0.17,1.274,0.424,1.615c0.594,0.424,0.766,1.103,0.339,1.696c-0.254,0.51-1.019,0.681-1.612,0.34   c-0.512-0.34-0.682-1.02-0.339-1.612c0.339-0.509,1.018-0.765,1.612-0.424c0.594,0.424,1.276,0.169,1.615-0.341   c0.34-0.595,0.17-1.274-0.427-1.614c-0.509-0.339-0.679-1.104-0.339-1.614C232.729,154.902,233.496,154.733,234.005,155.073   L234.005,155.073z"/>
	<path opacity="0.1" fill="#00A9A0" enable-background="new    " d="M357.304,120.852L357.304,120.852   c-3.733,0-7.132,1.355-9.68,3.565c-2.633,2.207-4.672,2.207-7.219,0c-2.545-2.125-5.942-3.48-9.678-3.48   c-5.775,0-10.786,3.142-13.08,7.726c-1.442,2.974-1.272,8.324-0.254,11.466c0.339,1.442,1.105,3.143,1.954,4.924   c0.17-0.086,0.424-0.086,0.595-0.086h7.896l4.248-8.065c0.254-0.425,0.679-0.68,1.188-0.68c0.509,0.085,0.848,0.339,1.106,0.766   l9.168,21.144l2.548-6.37c0.169-0.424,0.682-0.68,1.191-0.68h16.05c0.339,0,0.678,0.17,0.848,0.34   c0.421-0.51,0.848-1.104,1.276-1.696c1.187-1.445,3.65-4.927,4.668-7.983c1.615-4.33,1.615-7.471,1.615-7.471   C371.744,126.795,365.285,120.852,357.304,120.852L357.304,120.852z"/>
	<path opacity="0.1" fill="#00A9A0" enable-background="new    " d="M348.134,153.375l-3.396,8.322   c-0.169,0.425-0.678,0.765-1.19,0.765l0,0c-0.509,0-0.934-0.34-1.103-0.765l-9.342-21.483l-3.396,6.368   c-0.17,0.425-0.593,0.679-1.019,0.679h-8.068c0.085,0.17,0.17,0.255,0.255,0.425l2.124,2.887c0.593,0.678,1.187,1.273,1.784,1.952   c7.217,7.219,12.229,12.653,15.283,16.052c2.209,2.461,5.774,2.461,7.984,0c2.97-3.313,7.639-8.409,14.351-15.202L348.134,153.375   L348.134,153.375z"/>
	<path opacity="0.1" fill="#00A9A0" enable-background="new    " d="M352.125,133.929L352.125,133.929   c2.036,0,3.652,1.357,3.652,2.972c0,0.509,0.427,0.849,0.936,0.849c0.509,0,1.018-0.339,1.018-0.849   c0-2.632-2.551-4.756-5.605-4.756c-0.508,0-0.936,0.338-0.936,0.85C351.189,133.504,351.617,133.929,352.125,133.929   L352.125,133.929z"/>
	<path opacity="0.1" fill="#00A9A0" enable-background="new    " d="M354.332,130.957L354.332,130.957c2.463,0,4.5,1.697,4.5,3.736   c0,0.594,0.515,1.104,1.194,1.104c0.678,0,1.269-0.509,1.269-1.104c0-3.228-3.142-5.945-6.962-5.945   c-0.591,0-1.188,0.509-1.188,1.105C353.144,130.533,353.741,130.957,354.332,130.957L354.332,130.957z"/>
	<path opacity="0.1" fill="#00A9A0" enable-background="new    " d="M356.543,127.73L356.543,127.73   c3.394,0,6.285,2.291,6.285,5.179c0,0.85,0.76,1.613,1.696,1.613c0.849,0,1.697-0.764,1.697-1.613c0-4.586-4.33-8.322-9.678-8.322   c-0.936,0-1.702,0.681-1.702,1.527C354.841,127.05,355.607,127.73,356.543,127.73L356.543,127.73z"/>
	<path opacity="0.1" fill="#00A9A0" enable-background="new    " d="M468.801,163.479c1.105,2.125,1.019,4.586-0.17,6.539   c-1.188,1.954-3.313,3.227-5.688,3.227h-37.534c-2.375,0-4.499-1.272-5.687-3.227c-1.193-1.953-1.193-4.414-0.17-6.539   l14.517-26.748v-15.879c0-1.531,1.193-2.803,2.721-2.803h14.772c1.528,0,2.804,1.271,2.804,2.803v15.879L468.801,163.479z"/>
	<path opacity="0.1" fill="#00A9A0" enable-background="new    " d="M446.636,152.356L446.636,152.356   c-1.356,0-2.375,1.019-2.375,2.292c0,1.275,1.019,2.378,2.375,2.378c1.276,0,2.295-1.103,2.295-2.378   C448.931,153.375,447.913,152.356,446.636,152.356L446.636,152.356z"/>
	<path opacity="0.1" fill="#00A9A0" enable-background="new    " d="M439.932,138.259L439.932,138.259   c-1.274,0-2.294,1.021-2.294,2.294c0,1.357,1.02,2.377,2.294,2.377c1.358,0,2.375-1.021,2.375-2.377   C442.307,139.279,441.29,138.259,439.932,138.259L439.932,138.259z"/>
	<path opacity="0.1" fill="#00A9A0" enable-background="new    " d="M439.932,146.412L439.932,146.412   c-2.042,0-3.737,1.697-3.737,3.735c0,2.209,1.695,3.822,3.737,3.822c2.206,0,3.821-1.613,3.821-3.822   C443.752,148.109,442.137,146.412,439.932,146.412L439.932,146.412z"/>
	<path opacity="0.1" fill="#00A9A0" enable-background="new    " d="M461.837,165.943L461.837,165.943   c0.428-0.852,0.509-1.87,0-2.718l-2.633-4.84c-0.76-1.274-2.463-1.783-3.732-1.021c-2.294,1.274-4.757,2.209-7.39,2.293   c-4.926,0.254-10.361-3.992-15.282-4.416c-1.105-0.085-2.042,0.424-2.633,1.359l-3.651,6.623c-0.509,0.848-0.509,1.866,0,2.718   c0.51,0.764,1.357,1.272,2.375,1.272h30.571C460.48,167.216,461.329,166.707,461.837,165.943L461.837,165.943z"/>
	<path opacity="0.1" fill="#00A9A0" enable-background="new    " d="M516.699,126.795L516.699,126.795   c-0.339,2.208,0.422,3.396,1.616,3.653c1.188,0.085,2.286-0.765,2.714-3.058c0.427-2.293-1.275-5.267-1.275-5.267   S517.121,124.419,516.699,126.795L516.699,126.795z"/>
	<polygon opacity="0.1" fill="#00A9A0" enable-background="new    " points="558.646,172.057 558.646,172.057 557.376,170.782    560.009,168.66 553.724,161.866 561.617,155.582 567.902,162.292 570.534,160.168 571.811,161.527  "/>
	<polygon opacity="0.1" fill="#00A9A0" enable-background="new    " points="563.489,153.035 562.894,152.356 561.026,153.884    536.569,127.9 536.482,127.9 528.419,126.37 521.796,119.322 521.709,119.237 521.456,120.087 527.652,126.965 527.822,134.948    552.361,160.931 550.753,162.292 551.344,162.97 561.617,154.562  "/>
	<polygon opacity="0.1" fill="#00A9A0" enable-background="new    " points="540.051,132.909 540.051,132.909 536.313,135.881    536.996,136.56 540.648,133.59 541.917,134.948 539.969,136.645 540.56,137.325 542.596,135.711 543.96,137.072 541.836,138.768    542.515,139.364 544.551,137.75 545.738,139.023 542.175,141.995 542.766,142.674 546.423,139.703 547.692,141.061    545.655,142.674 546.253,143.355 548.289,141.656 549.646,143.101 547.611,144.713 548.202,145.478 550.243,143.78    551.852,145.478 548.202,148.364 548.798,149.044 552.449,146.072 553.468,147.175 551.514,148.705 552.192,149.384    554.064,147.855 555.421,149.214 553.468,150.742 554.146,151.421 556.019,149.893 560.261,154.478 553.047,160.338    528.758,134.608 528.589,127.305 535.974,128.663  "/>
	<path opacity="0.1" fill="#00A9A0" enable-background="new    " d="M470.746,363.46v-3.569c-1.275-0.083-2.379-0.252-3.397-0.51   l0.171-11.122c1.019-0.258,2.205-0.429,3.48-0.339v-3.651c-6.623-0.088-10.531,3.225-13.844,6.705   c-3.055-3.563-6.878-7.045-13.501-7.133c-6.708-0.081-10.613,3.229-13.839,6.623c-3.143-3.48-6.878-6.964-13.586-7.133   l-0.088,3.651c1.531,0,2.891,0.257,3.994,0.678l-0.17,10.784c-1.191,0.343-2.463,0.513-3.993,0.513l-0.082,3.653   c6.705,0.082,10.613-3.313,13.755-6.712c3.143,3.569,6.964,6.963,13.672,7.133c6.623,0.088,10.527-3.225,13.84-6.705   C460.217,359.889,464.038,363.37,470.746,363.46L470.746,363.46z"/>
	<path opacity="0.1" fill="#00A9A0" enable-background="new    " d="M459.535,353.693L459.535,353.693   c1.614-1.702,3.142-3.229,4.926-4.248l-0.084,8.659C462.592,356.917,461.065,355.39,459.535,353.693L459.535,353.693z"/>
	<path opacity="0.1" fill="#00A9A0" enable-background="new    " d="M446.797,359.041L446.797,359.041   c-1.019,0.256-2.209,0.34-3.48,0.34c-0.849,0-1.7-0.084-2.465-0.255l0.174-11.466c0.764-0.168,1.611-0.251,2.545-0.251   c1.274,0,2.378,0.251,3.396,0.511L446.797,359.041z"/>
	<path opacity="0.1" fill="#00A9A0" enable-background="new    " d="M432.109,353.265L432.109,353.265   c1.864-1.954,3.65-3.65,5.855-4.756l-0.17,9.595C435.59,357.006,433.891,355.22,432.109,353.265L432.109,353.265z"/>
	<path opacity="0.1" fill="#00A9A0" enable-background="new    " d="M423.192,349.191L423.192,349.191   c1.526,1.021,2.802,2.46,4.158,3.992c-1.441,1.439-2.802,2.8-4.329,3.821L423.192,349.191z"/>
	<path opacity="0.1" fill="#00A9A0" enable-background="new    " d="M454.781,353.604L454.781,353.604   c-1.615,1.697-3.143,3.143-4.926,4.249l0.085-8.662C451.809,350.295,453.251,351.909,454.781,353.604L454.781,353.604z"/>
	<path opacity="0.1" fill="#00A9A0" enable-background="new    " d="M936.086,55.314L936.086,55.314   c3.563,2.036,5.943,6.024,5.943,10.361c0,6.534-5.353,11.971-11.978,11.971c-6.535,0-11.883-5.437-11.883-11.971   c0-4.078,1.949-7.816,5.26-10.022v-26.92c0-3.396,2.804-6.284,6.284-6.284c3.481,0,6.372,2.89,6.372,6.284L936.086,55.314   L936.086,55.314z"/>
	<path opacity="0.1" fill="#00A9A0" enable-background="new    " d="M930.053,74.335L930.053,74.335   c4.758,0,8.666-3.909,8.666-8.659c0-3.823-2.551-7.136-6.033-8.238v-6.711h-0.848v-1.357h0.848V45.63h-0.848v-1.27h0.848v-3.399   h-0.848v-1.356h0.848V28.733c0-1.612-1.269-2.886-2.972-2.886c-1.607,0-2.972,1.272-2.972,2.886v28.956   c-3.144,1.274-5.349,4.333-5.349,7.986C921.395,70.426,925.303,74.335,930.053,74.335L930.053,74.335z"/>
	<path opacity="0.1" fill="#0036A0" enable-background="new    " d="M931.926,59.901c2.463,0.848,4.072,3.142,4.072,5.687   c0,3.313-2.633,5.945-5.945,5.945c-3.311,0-5.942-2.633-5.942-5.945c0-2.375,1.443-4.587,3.655-5.436l0.762-0.339V41.048   c0-0.678,0.597-1.189,1.273-1.189c0.681,0,1.277,0.513,1.277,1.189v18.596L931.926,59.901z"/>
	<path opacity="0.1" fill="#00A9A0" enable-background="new    " d="M554.994,351.062c3.229-0.34,6.372-2.038,9.087-5.009   c0.427-0.51,0.509-1.021,0.427-1.615c3.651-4.414,5.857-10.443,5.857-15.115c0-7.218-3.396-7.98-9.169-9.171v-0.084   c-0.428-0.68-1.105-1.104-1.953-1.104c-1.188,0-2.125,0.936-2.125,2.039c0,1.103,0.937,2.036,2.125,2.036   c0.509,0,0.936-0.17,1.274-0.509l0.081,0.084c5.605,1.19,7.052,1.446,7.052,6.709c0,4.078-2.036,9.596-5.267,13.589   c-0.509,0-1.019,0.171-1.445,0.594c-1.609,1.783-4.241,3.905-7.302,3.905c-3.143,0-5.688-2.122-7.303-3.82   c-0.427-0.425-0.937-0.679-1.445-0.679c-3.224-3.993-5.348-9.511-5.348-13.589c0-5.263,1.527-5.519,7.132-6.709v-0.084   c0.341,0.339,0.85,0.509,1.358,0.509c1.188,0,2.123-0.934,2.123-2.036c0-1.104-0.937-2.039-2.123-2.039   c-0.933,0-1.609,0.426-1.954,1.104h-0.082c-5.688,1.273-9.169,1.952-9.169,9.255c0,4.672,2.205,10.701,5.938,15.2   c-0.082,0.509,0,1.104,0.428,1.53c2.716,2.886,5.774,4.585,8.918,5.009l-0.089,9.17c0,6.283-5.518,11.38-12.229,11.38   c-6.706,0-12.142-5.097-12.142-11.38v-8.064c3.908-0.596,6.881-3.651,6.881-7.475c0-4.245-3.738-7.641-8.325-7.641   c-4.499,0-8.232,3.396-8.232,7.641c0,3.822,3.055,6.879,6.874,7.475v8.064c0,7.645,6.712,13.843,14.944,13.843   c8.325,0,15.03-6.198,15.03-13.843v-9.17H554.994z"/>
	<path opacity="0.1" fill="#00A9A0" enable-background="new    " d="M526.208,349.79L526.208,349.79c3.06,0,5.523-2.294,5.523-5.097   c0-2.887-2.465-5.095-5.523-5.095c-2.972,0-5.436,2.208-5.436,5.095C520.771,347.496,523.236,349.79,526.208,349.79L526.208,349.79   z"/>
	<path opacity="0.1" fill="#00A9A0" enable-background="new    " d="M526.126,340.873L526.126,340.873c2.205,0,3.99,1.698,3.99,3.82   c0,2.124-1.785,3.906-3.99,3.906c-2.294,0-3.99-1.782-3.99-3.906C522.136,342.571,523.832,340.873,526.126,340.873L526.126,340.873   z"/>
	<path opacity="0.1" fill="#00A9A0" enable-background="new    " d="M267.387,368.93h-16.646c-1.019,0-1.867-0.852-1.867-1.872   v-4.33c0-1.696,1.106-3.312,2.633-3.989c0.591-0.255,0.937-0.937,0.68-1.526l-1.615-4.078c-0.171-0.511,0.087-0.935,0.509-1.104   l12.567-5.012c0.427-0.169,0.768-0.421,0.937-0.848c0.17-0.425,0.17-0.85,0-1.275c-0.339-0.848-1.275-1.188-2.036-0.931   l-19.7,7.642c-0.597,0.254-0.937,0.933-0.767,1.527l0.251,0.679c0.089,0.339,0.089,0.597-0.17,0.767   c-0.169,0.251-0.421,0.34-0.678,0.34c-1.866-0.34-5.178-1.614-6.284-7.221c-1.609-7.98,5.693-11.802,9.345-13.247   c0.421-0.169,0.848-0.169,1.275,0.088c0.508,0.171,0.761,0.51,0.93,0.932l-0.592,0.339c-0.257,0.088-0.338,0.427-0.257,0.682   c0.17,0.17,0.257,0.255,0.51,0.255c0,0,0.087,0,0.17-0.085l0.596-0.254c0.511,0.767,1.271,1.356,2.124,1.695l-0.087,0.768   c-0.082,0.25,0.169,0.51,0.427,0.594c0,0,0,0,0.082,0c0.169,0,0.428-0.254,0.428-0.424l0.081-0.68   c0.258,0.083,0.596,0.083,0.849,0.083c0.597,0,1.193-0.083,1.702-0.341l0.422,0.768c0.088,0.17,0.257,0.25,0.427,0.25   c0.082,0,0.169,0,0.252,0c0.257-0.08,0.339-0.42,0.17-0.677l-0.422-0.761c0.76-0.51,1.27-1.191,1.609-1.873l0.596,0.257   c0.089,0.085,0.17,0.085,0.258,0.085c0.169,0,0.339-0.085,0.422-0.254c0.088-0.258,0.088-0.597-0.17-0.68l-0.761-0.428   c0.082-0.251,0.082-0.591,0.082-0.93c0-0.681-0.082-1.275-0.34-1.784l0.509-0.258c0.258-0.17,0.34-0.509,0.17-0.679   c-0.081-0.252-0.421-0.339-0.591-0.252l-0.515,0.34c-0.34-0.427-0.679-0.848-1.188-1.106c-0.17-0.169-0.34-0.423-0.421-0.597   l-5.604-12.31c-0.511-1.02-1.616-1.446-2.634-1.02c-0.34,0.17-0.679,0-0.85-0.34l-1.105-2.293c-0.34-0.767-1.188-1.018-1.954-0.68   c-0.679,0.34-1.019,1.188-0.679,1.955l1.019,2.121c0.087,0.169,0.087,0.339,0.087,0.51c-0.087,0.169-0.257,0.342-0.427,0.342   c-0.509,0.251-0.849,0.678-1.019,1.188c-0.251,0.421-0.251,1.018,0,1.525l1.697,3.821c0.17,0.597-0.082,1.274-0.679,1.526   c-4.581,2.043-14.347,8.155-11.971,21.824c1.275,6.792,4.926,9.854,7.898,11.38c1.609,0.68,2.546,2.294,2.546,3.99v3.82   c0,1.105-0.849,1.955-1.955,1.955h-4.241c-0.685,0-1.194,0.509-1.194,1.104v2.293h36.265v-2.211   C268.493,369.44,268.065,368.93,267.387,368.93L267.387,368.93z"/>
	<path opacity="0.1" fill="#00A9A0" enable-background="new    " d="M244.205,358.059L244.205,358.059c0.51,0,0.85,0.34,0.85,0.764   c0,0.425-0.34,0.853-0.85,0.853c-0.427,0-0.766-0.428-0.766-0.853C243.439,358.399,243.778,358.059,244.205,358.059   L244.205,358.059z"/>
	<path opacity="0.1" fill="#00A9A0" enable-background="new    " d="M243.187,328.425L243.187,328.425   c0.421,0,0.762,0.423,0.762,0.85c0,0.425-0.341,0.764-0.762,0.764c-0.428,0-0.766-0.339-0.766-0.764   C242.421,328.846,242.759,328.425,243.187,328.425L243.187,328.425z"/>
	<path opacity="0.1" fill="#00A9A0" enable-background="new    " d="M157.749,40.264v-0.085c-1.527-1.188-2.803-2.208-3.99-3.143   c-0.085,0-0.257-0.17-0.257-0.34v-5.264h1.19v-3.059c0-7.218-21.061-5.857-21.061,0v3.059h1.191v5.264c0,0.17-0.17,0.34-0.255,0.34   c-1.19,0.935-2.463,1.869-3.993,3.143c-1.357,1.188-2.206,1.953-2.206,4.501c0,1.019,0,5.18,0,9.171c0,3.821,0,7.473,0,8.236   c0,2.378,1.782,4.927,4.838,4.927h11.042c0,0,9.765,0,10.868,0c3.058,0,4.839-2.463,4.839-4.927v-8.151c0-4.076,0-8.237,0-9.256   C159.955,42.133,159.107,41.368,157.749,40.264z M156.9,53.936v8.151c0,0.764-0.509,1.87-1.785,1.87c-1.103,0-10.868,0-10.868,0   h-11.042c-1.357,0-1.781-1.105-1.781-1.87c0-0.764,0-4.415,0-8.236c0-3.992,0-8.152,0-9.171c0-1.189,0-1.274,1.018-2.123h0.085   c1.442-1.189,2.718-2.209,3.821-3.058c1.021-0.679,1.53-1.697,1.53-2.803v-5.264h12.568v5.264c0,1.104,0.509,2.124,1.442,2.803   c1.19,0.849,2.378,1.868,3.906,3.058c1.105,0.849,1.105,0.933,1.105,2.123C156.9,45.699,156.9,49.86,156.9,53.936z"/>
	<rect x="135.076" y="48.587" opacity="0.1" fill="#00A9A0" enable-background="new    " width="18.768" height="12.398"/>
	<path opacity="0.1" fill="#00A9A0" enable-background="new    " d="M244.534,60.73l5.436-9.937l-0.085-0.169l-1.867-2.803   l-1.02-1.02c-3.482-3.227-7.983-3.99-10.19-4.16h-0.254l-5.774,10.528c-0.679,1.191-1.021,2.634-0.934,4.077   c0.085,2.718,1.612,5.181,4.075,6.54C237.655,65.824,242.413,64.467,244.534,60.73L244.534,60.73z"/>
	<path opacity="0.1" fill="#00A9A0" enable-background="new    " d="M237.317,40.433l1.784,0.341   c3.482,0.509,8.151,2.038,11.123,6.454l1.188,1.698l6.03-11.04c0.763-1.359,1.105-2.804,1.02-4.331   c-0.085-2.889-1.699-5.435-4.248-6.793c-3.906-2.208-8.917-0.764-11.037,3.227L237.317,40.433z"/>
	<path opacity="0.1" fill="#00A9A0" enable-background="new    " d="M253.026,28.971c1.785,0.934,2.888,2.716,2.972,4.669   c0,1.104-0.169,2.123-0.679,3.057l-4.163,7.559c-3.057-3.481-6.962-5.01-9.935-5.688l4.075-7.389   C246.828,28.376,250.308,27.442,253.026,28.971L253.026,28.971z"/>
	<path opacity="0.1" fill="#00A9A0" enable-background="new    " d="M369.192,60.22l-0.338-0.596   c-1.358-2.377-4.417-7.812-7.642-12.48c-1.018-1.614-2.124-3.059-3.06-4.332c-1.528-2.124-3.481-4.755-3.481-5.605   c0.088-3.396,0-11.548,0-14.01h2.042V19.63h-25.735v3.566h2.722c0,2.462-0.088,10.613,0,14.01c0,0.851-1.955,3.481-3.485,5.605   c-1.018,1.273-2.035,2.718-3.141,4.332c-3.143,4.67-6.199,10.104-7.557,12.48l-0.339,0.596c-1.358,2.377-1.358,5.688,0,7.981   c0.934,1.698,2.545,2.633,4.499,2.633h41.017c1.866,0,3.481-0.935,4.499-2.633C370.551,65.909,370.551,62.597,369.192,60.22   L369.192,60.22z"/>
	<path opacity="0.1" fill="#001FA0" enable-background="new    " d="M366.648,66.674c-0.427,0.851-1.105,1.189-1.954,1.189h-41.017   c-0.848,0-1.527-0.34-1.954-1.189c-0.849-1.358-0.849-3.48,0-5.01l0.342-0.594c1.357-2.293,4.33-7.729,7.472-12.313   c1.021-1.527,2.124-2.973,3.057-4.245c2.718-3.736,4.16-5.689,4.075-7.39c-0.084-3.057-0.084-10.188,0-13.247h15.03   c0,3.144,0.088,10.19,0,13.247c-0.082,1.7,1.363,3.652,4.079,7.39c0.936,1.272,1.954,2.718,3.054,4.245   c3.061,4.584,6.115,10.021,7.39,12.313l0.339,0.594C367.409,63.192,367.496,65.315,366.648,66.674L366.648,66.674z"/>
	<path opacity="0.1" fill="#004374" enable-background="new    " d="M346.947,36.782c0-1.103,0.594-2.038,1.357-2.038   c0.764,0,1.359,0.936,1.359,2.038c0,1.104-0.595,2.039-1.359,2.039C347.541,38.822,346.947,37.887,346.947,36.782L346.947,36.782z"/>
	<path opacity="0.1" fill="#004374" enable-background="new    " d="M343.038,40.264c-1.357,0-2.463-1.697-2.463-3.736   c0-2.123,1.106-3.821,2.463-3.821c1.445,0,2.548,1.698,2.548,3.821C345.586,38.567,344.483,40.264,343.038,40.264L343.038,40.264z"/>
	<path opacity="0.1" fill="#004374" enable-background="new    " d="M345.077,43.49c0,1.445-0.764,2.548-1.699,2.548   c-0.934,0-1.697-1.103-1.697-2.548c0-1.357,0.764-2.546,1.697-2.546C344.313,40.945,345.077,42.133,345.077,43.49L345.077,43.49z"/>
	<path opacity="0.1" fill="#004374" enable-background="new    " d="M348.389,47.143c0,3.565-3.651,3.565-3.651,0   c0-1.529,0.763-2.719,1.781-2.719C347.541,44.427,348.389,45.615,348.389,47.143L348.389,47.143z"/>
	<path opacity="0.1" fill="#004374" enable-background="new    " d="M340.235,44.341c0,1.104-0.594,1.953-1.358,1.953   c-0.763,0-1.357-0.849-1.357-1.953c0-1.188,0.594-2.037,1.357-2.037C339.641,42.303,340.235,43.152,340.235,44.341L340.235,44.341z   "/>
	<path opacity="0.1" fill="#004374" enable-background="new    " d="M364.694,60.561c-0.767-1.361-2.551-4.587-4.417-7.306   c-0.509-0.764-0.93-1.357-1.445-2.035h-29.294c-0.508,0.678-0.934,1.271-1.442,2.035c-1.87,2.719-3.651,5.944-4.418,7.306   l-0.255,0.338c-0.764,1.442-0.764,3.313,0,4.669c0.594,1.02,1.53,1.615,2.634,1.615h36.174c1.188,0,2.125-0.596,2.716-1.615   c0.766-1.357,0.766-3.228,0-4.669L364.694,60.561z"/>
	<path opacity="0.1" fill="#004374" enable-background="new    " d="M348.389,41.539c0,0.765-0.425,1.357-0.848,1.357   c-0.512,0-0.934-0.593-0.934-1.357c0-0.68,0.421-1.274,0.934-1.274C347.964,40.264,348.389,40.859,348.389,41.539L348.389,41.539z"/>
	<path opacity="0.1" fill="#00A9A0" enable-background="new    " d="M453.518,24.724h8.319c0.937,0,1.786-0.85,1.786-1.782   c0-1.021-0.85-1.785-1.786-1.785h-8.319c-0.937,0-1.784,0.765-1.784,1.785C451.733,23.875,452.582,24.724,453.518,24.724   L453.518,24.724z"/>
	<path opacity="0.1" fill="#00A9A0" enable-background="new    " d="M461.837,29.48h-8.319c-0.937,0-1.784,0.764-1.784,1.697   c0,1.021,0.848,1.783,1.784,1.783h8.319c0.937,0,1.786-0.763,1.786-1.783C463.623,30.244,462.773,29.48,461.837,29.48   L461.837,29.48z"/>
	<path opacity="0.1" fill="#00A9A0" enable-background="new    " d="M461.837,37.633h-8.319c-0.937,0-1.784,0.851-1.784,1.868   c0,0.934,0.848,1.783,1.784,1.783h8.319c0.937,0,1.786-0.85,1.786-1.783C463.623,38.482,462.773,37.633,461.837,37.633   L461.837,37.633z"/>
	<path opacity="0.1" fill="#00A9A0" enable-background="new    " d="M461.925,45.36h-8.067c-1.019,0-1.785,0.764-1.785,1.783   c0,1.019,0.767,1.783,1.785,1.783h8.067c0.931,0,1.697-0.765,1.697-1.783C463.623,46.124,462.855,45.36,461.925,45.36   L461.925,45.36z"/>
	<path opacity="0.1" fill="#00A9A0" enable-background="new    " d="M447.913,28.122c0-5.519-4.5-10.021-9.937-10.021   c-5.517,0-10.021,4.502-10.021,10.021V50.54c-2.118,2.376-3.224,5.435-3.224,8.661c0,7.218,5.943,13.162,13.157,13.162   c7.31,0,13.252-5.944,13.252-13.162c0-3.227-1.104-6.284-3.229-8.661L447.913,28.122L447.913,28.122z"/>
	<path opacity="0.1" fill="#0029A0" enable-background="new    " d="M437.889,68.796c-5.26,0-9.595-4.33-9.595-9.596   c0-2.546,0.937-4.924,2.633-6.708c0.338-0.339,0.508-0.763,0.508-1.271V28.122c0-3.566,2.892-6.456,6.454-6.456   c3.569,0,6.454,2.889,6.454,6.456V51.22c0,0.509,0.169,0.933,0.516,1.271c1.696,1.784,2.714,4.162,2.714,6.708   C447.572,64.467,443.243,68.796,437.889,68.796L437.889,68.796z"/>
	<path opacity="0.1" fill="#0036A0" enable-background="new    " d="M440.949,53.512l0.083-15.88c0-1.612-1.358-2.973-2.973-2.973   c-1.608,0-2.973,1.359-2.973,2.973l-0.17,15.88c-1.866,1.02-3.224,3.142-3.224,5.519c0,3.482,2.803,6.284,6.195,6.284   c3.482,0,6.284-2.802,6.284-6.284C444.173,56.654,442.816,54.531,440.949,53.512L440.949,53.512z"/>
	<path opacity="0.1" fill="#0036A0" enable-background="new    " d="M653.519,124.724h8.319c0.937,0,1.785-0.85,1.785-1.782   c0-1.021-0.85-1.785-1.785-1.785h-8.318c-0.938,0-1.784,0.765-1.784,1.785C651.734,123.875,652.582,124.724,653.519,124.724   L653.519,124.724z"/>
	<path opacity="0.1" fill="#0036A0" enable-background="new    " d="M661.838,129.48h-8.318c-0.938,0-1.784,0.764-1.784,1.697   c0,1.021,0.848,1.783,1.784,1.783h8.318c0.937,0,1.785-0.763,1.785-1.783C663.623,130.244,662.773,129.48,661.838,129.48   L661.838,129.48z"/>
	<path opacity="0.1" fill="#0036A0" enable-background="new    " d="M661.838,137.633h-8.318c-0.938,0-1.784,0.851-1.784,1.868   c0,0.934,0.848,1.783,1.784,1.783h8.318c0.937,0,1.785-0.85,1.785-1.783C663.623,138.482,662.773,137.633,661.838,137.633   L661.838,137.633z"/>
	<path opacity="0.1" fill="#0036A0" enable-background="new    " d="M661.926,145.36h-8.067c-1.019,0-1.785,0.764-1.785,1.783   c0,1.019,0.768,1.783,1.785,1.783h8.067c0.931,0,1.697-0.765,1.697-1.783C663.623,146.124,662.855,145.36,661.926,145.36   L661.926,145.36z"/>
	<path opacity="0.1" fill="#00A9A0" enable-background="new    " d="M647.913,128.122c0-5.519-4.5-10.021-9.937-10.021   c-5.517,0-10.021,4.502-10.021,10.021v22.418c-2.117,2.376-3.224,5.435-3.224,8.661c0,7.218,5.943,13.162,13.157,13.162   c7.31,0,13.254-5.944,13.254-13.162c0-3.227-1.105-6.284-3.229-8.661V128.122L647.913,128.122z"/>
	<path opacity="0.1" fill="#00A9A0" enable-background="new    " d="M637.89,168.796c-5.26,0-9.595-4.33-9.595-9.596   c0-2.546,0.937-4.924,2.633-6.708c0.338-0.339,0.508-0.763,0.508-1.271v-23.099c0-3.566,2.892-6.456,6.454-6.456   c3.569,0,6.454,2.889,6.454,6.456v23.099c0,0.509,0.169,0.933,0.516,1.271c1.695,1.784,2.714,4.162,2.714,6.708   C647.572,164.467,643.244,168.796,637.89,168.796L637.89,168.796z"/>
	<path opacity="0.1" fill="#0036A0" enable-background="new    " d="M640.949,153.512l0.083-15.88c0-1.612-1.358-2.973-2.973-2.973   c-1.608,0-2.973,1.359-2.973,2.973l-0.17,15.88c-1.867,1.02-3.225,3.142-3.225,5.519c0,3.482,2.803,6.284,6.195,6.284   c3.481,0,6.284-2.802,6.284-6.284C644.174,156.654,642.816,154.531,640.949,153.512L640.949,153.512z"/>
	<path opacity="0.1" fill="#00A9A0" enable-background="new    " d="M657.749,25.744h-7.559v-0.51c0-0.51-0.511-0.936-1.106-0.936   h-9.766c-0.592,0-1.101,0.425-1.101,0.936v0.51h-7.478c-1.357,0-2.376,1.019-2.376,2.206v36.007c0,1.188,1.019,2.207,2.376,2.207   h27.008c1.271,0,2.288-1.019,2.288-2.207V27.95C660.037,26.762,659.02,25.744,657.749,25.744L657.749,25.744z"/>
	<path opacity="0.1" fill="#00A9A0" enable-background="new    " d="M657.41,63.701h-26.411V28.207h7.22v0.254   c0,0.597,0.509,1.021,1.101,1.021h9.766c0.597,0,1.106-0.424,1.106-1.021v-0.254h7.22L657.41,63.701L657.41,63.701z"/>
	<path opacity="0.1" fill="#00A9A0" enable-background="new    " d="M640.255,43.236c0-1.273-1.019-2.292-2.293-2.292   c-1.276,0-2.295,1.019-2.295,2.292c0,1.274,1.019,2.293,2.295,2.293C639.236,45.53,640.255,44.51,640.255,43.236L640.255,43.236z"/>
	<path opacity="0.1" fill="#00A9A0" enable-background="new    " d="M651.038,41.963h-7.81c-0.769,0-1.276,0.595-1.276,1.273   c0,0.765,0.509,1.358,1.276,1.358h7.81c0.766,0,1.356-0.594,1.356-1.358C652.395,42.557,651.804,41.963,651.038,41.963   L651.038,41.963z"/>
	<path opacity="0.1" fill="#00A9A0" enable-background="new    " d="M640.255,50.199c0-1.271-1.019-2.291-2.293-2.291   c-1.276,0-2.295,1.019-2.295,2.291c0,1.275,1.019,2.293,2.295,2.293C639.236,52.492,640.255,51.474,640.255,50.199L640.255,50.199z   "/>
	<path opacity="0.1" fill="#00A9A0" enable-background="new    " d="M651.038,48.927h-7.81c-0.769,0-1.276,0.593-1.276,1.271   c0,0.765,0.509,1.36,1.276,1.36h7.81c0.766,0,1.356-0.597,1.356-1.36C652.395,49.52,651.804,48.927,651.038,48.927L651.038,48.927z   "/>
	<path opacity="0.1" fill="#00A9A0" enable-background="new    " d="M640.255,36.782c0-1.271-1.019-2.292-2.293-2.292   c-1.276,0-2.295,1.021-2.295,2.292c0,1.274,1.019,2.293,2.295,2.293C639.236,39.076,640.255,38.057,640.255,36.782L640.255,36.782z   "/>
	<path opacity="0.1" fill="#00A9A0" enable-background="new    " d="M640.255,56.993c0-1.273-1.019-2.292-2.293-2.292   c-1.276,0-2.295,1.019-2.295,2.292c0,1.274,1.019,2.292,2.295,2.292C639.236,59.285,640.255,58.267,640.255,56.993L640.255,56.993z   "/>
	<path opacity="0.1" fill="#00A9A0" enable-background="new    " d="M651.038,55.634h-7.81c-0.769,0-1.276,0.595-1.276,1.359   c0,0.68,0.509,1.274,1.276,1.274h7.81c0.766,0,1.356-0.595,1.356-1.274C652.395,56.228,651.804,55.634,651.038,55.634   L651.038,55.634z"/>
	<path opacity="0.1" fill="#00A9A0" enable-background="new    " d="M651.038,35.427h-7.81c-0.769,0-1.276,0.594-1.276,1.356   c0,0.679,0.509,1.274,1.276,1.274h7.81c0.766,0,1.356-0.597,1.356-1.274C652.395,36.019,651.804,35.427,651.038,35.427   L651.038,35.427z"/>
	<g opacity="0.1" enable-background="new    ">
		<g>
			<path fill="#00A9A0" d="M736.257,358.795v-7.521c0-0.263-0.213-0.477-0.476-0.477h-28.208c-0.264,0-0.478,0.214-0.478,0.477     v7.521c0,0.263,0.214,0.477,0.478,0.477h28.208C736.044,359.27,736.257,359.056,736.257,358.795z"/>
			<path fill="#00A9A0" d="M740.719,358.748v-7.43c0-0.263-0.213-0.477-0.477-0.477h-2.66c-0.264,0-0.477,0.214-0.477,0.477v7.43     c0,0.265,0.213,0.478,0.477,0.478h2.66C740.506,359.224,740.719,359.011,740.719,358.748z"/>
			<path fill="#00A9A0" d="M744.635,359.224c0.265,0,0.478-0.213,0.478-0.478v-7.43c0-0.263-0.213-0.477-0.478-0.477h-2.66     c-0.263,0-0.477,0.214-0.477,0.477v7.43c0,0.265,0.214,0.478,0.477,0.478H744.635z"/>
			<path fill="#00A9A0" d="M763.359,353.835h-16.647c-0.263,0-0.477,0.214-0.477,0.477v1.444c0,0.264,0.214,0.477,0.477,0.477     h16.647c0.558,2.636,2.914,4.575,5.643,4.575c3.184,0,5.774-2.59,5.774-5.773c0-3.183-2.592-5.773-5.774-5.773     C766.273,349.26,763.917,351.198,763.359,353.835z"/>
			<path fill="#00A9A0" d="M736.257,343.384v-7.521c0-0.263-0.213-0.477-0.476-0.477h-28.208c-0.264,0-0.478,0.214-0.478,0.477     v7.521c0,0.264,0.214,0.477,0.478,0.477h28.208C736.044,343.859,736.257,343.646,736.257,343.384z"/>
			<path fill="#00A9A0" d="M737.105,335.907v7.432c0,0.263,0.213,0.477,0.477,0.477h2.66c0.264,0,0.477-0.214,0.477-0.477v-7.432     c0-0.263-0.213-0.476-0.477-0.476h-2.66C737.318,335.431,737.105,335.644,737.105,335.907z"/>
			<path fill="#00A9A0" d="M741.498,335.907v7.432c0,0.263,0.214,0.477,0.477,0.477h2.66c0.264,0,0.478-0.214,0.478-0.477v-7.432     c0-0.263-0.214-0.476-0.478-0.476h-2.66C741.712,335.431,741.498,335.644,741.498,335.907z"/>
			<path fill="#00A9A0" d="M773.477,338.983c0.188-0.187,0.188-0.487,0-0.674l-1.167-1.167c-0.089-0.09-0.21-0.14-0.337-0.14     c-0.126,0-0.247,0.05-0.337,0.14l-3.803,3.804l-2.44-2.439c-0.09-0.09-0.211-0.141-0.337-0.141h-18.87     c-0.264,0-0.477,0.214-0.477,0.478v1.65c0,0.264,0.213,0.478,0.477,0.478h17.989l3.321,3.319c0.186,0.188,0.487,0.188,0.674,0     L773.477,338.983z"/>
		</g>
		<g opacity="0.15">
			<g>
				<circle fill="#00A9A0" cx="769.002" cy="355.033" r="3.922"/>
			</g>
		</g>
	</g>
	<g opacity="0.15" enable-background="new    ">
		<rect x="915.371" y="354.085" fill="#00A9A0" width="14.563" height="13.558"/>
		<polygon fill="#00A9A0" points="931.683,367.641 946.571,367.641 946.571,359.737 931.683,354.775   "/>
		<path fill="#00A9A0" d="M952.646,332.144v-7.785h-13.702v3.13h-8.104v-12.677c0-0.536-0.435-0.971-0.971-0.971h-9.04    c-0.396-1.762-1.962-3.075-3.84-3.075c-2.175,0-3.938,1.764-3.938,3.938c0,2.176,1.764,3.938,3.938,3.938    c1.8,0,3.314-1.209,3.784-2.859h8.125v25.91h-6.766c-0.342,0-0.672,0.137-0.916,0.38l-2.104,2.104    c-0.242,0.244-0.381,0.572-0.381,0.917v2.415h-1.27l-19.853-20.958c-0.983-1.038-2.623-1.083-3.66-0.1    c-1.038,0.981-1.083,2.622-0.101,3.661l21.389,22.573h15.138l16.565,5.372c0.265,0.087,0.534,0.127,0.8,0.127    c1.091,0,2.105-0.695,2.461-1.79c0.442-1.36-0.303-2.82-1.663-3.263l-17.344-5.624h-9.87v-1.879l1.345-1.347h6.229v2.212h1.94    v-2.212h2.03c0.715,0,1.294-0.579,1.294-1.294c0-0.716-0.579-1.296-1.294-1.296h-2.03v-12.477h8.104v2.928L952.646,332.144    L952.646,332.144z M940.314,325.673h11.005v5.395h-11.005V325.673z M916.989,317.456c-1.521,0-2.752-1.231-2.752-2.75    c0-1.521,1.231-2.754,2.752-2.754c1.52,0,2.751,1.233,2.751,2.754C919.74,316.223,918.509,317.456,916.989,317.456z"/>
	</g>
	<g>
		<path opacity="0.15" fill="#00A9A0" enable-background="new    " d="M823.761,339.802h24.075c0.133-0.42,0.276-0.862,0.425-1.315    c1.548-4.729,3.886-11.878-1.262-15.127c-1.759-1.109-3.467-1.648-5.222-1.648c-1.892,0-3.436,0.653-4.563,1.133    c-0.517,0.22-1.16,0.492-1.416,0.492c-0.257,0-0.899-0.272-1.417-0.492c-1.128-0.479-2.672-1.133-4.563-1.133    c-1.754,0-3.461,0.54-5.222,1.648c-5.146,3.249-2.81,10.397-1.262,15.127C823.484,338.938,823.628,339.382,823.761,339.802z"/>
		<path opacity="0.15" fill="#00A9A0" enable-background="new    " d="M842.415,324.178c4.296-1.202,6.7,9.794,3.951,11.513    C844.992,328.646,838.118,325.384,842.415,324.178z"/>
		<path opacity="0.15" fill="#00A9A0" enable-background="new    " d="M849.253,341.46h-26.909c-1.61,0-2.917,1.306-2.917,2.916    s1.307,2.915,2.917,2.915h9.876v1.326h-4.983c-1.024,0-1.855,0.831-1.855,1.855s0.831,1.855,1.855,1.855h4.983v1.325h-3.394    c-1.025,0-1.855,0.831-1.855,1.855s0.83,1.855,1.855,1.855h3.394v1.325h-1.802c-1.025,0-1.856,0.831-1.856,1.856    c0,1.023,0.831,1.854,1.856,1.854h1.802v1.326h-0.212c-1.024,0-1.854,0.83-1.854,1.854c0,1.025,0.83,1.856,1.854,1.856h7.58    c1.025,0,1.856-0.831,1.856-1.856c0-1.023-0.831-1.854-1.856-1.854h-0.211V362.4h1.803c1.024,0,1.855-0.831,1.855-1.854    c0-1.025-0.831-1.856-1.855-1.856h-1.803v-1.325h3.393c1.025,0,1.856-0.831,1.856-1.855s-0.831-1.855-1.856-1.855h-3.393v-1.325    h4.984c1.023,0,1.854-0.831,1.854-1.855s-0.831-1.855-1.854-1.855h-4.984v-1.326h9.876c1.611,0,2.917-1.305,2.917-2.915    C852.17,342.764,850.864,341.46,849.253,341.46z"/>
	</g>
</g>
</svg>